<?xml version="1.0" encoding="UTF-8"?>
<svg width="20px" height="20px" viewBox="0 0 20 20" version="1.1" xmlns="http://www.w3.org/2000/svg" xmlns:xlink="http://www.w3.org/1999/xlink">
    <!-- Generator: Sketch 47.1 (45422) - http://www.bohemiancoding.com/sketch -->
    <title>facebook</title>
    <desc>Created with Sketch.</desc>
    <defs></defs>
    <g id="Page-1" stroke="none" stroke-width="1" fill="none" fill-rule="evenodd">
        <g id="Group" transform="translate(-20.000000, 0.000000)"></g>
        <path d="M11.1440451,4.00080152 C11.2653211,3.99814206 11.3916197,4.00221383 11.5221646,4.01133486 C12.0019101,4.01200563 12.5029657,4.05670744 13,4.1019216 L12.9459811,6.14538986 L11.6108362,6.14538986 C10.9847996,6.13106114 10.7587276,6.38229735 10.7384056,7.11235061 L10.7384056,8.71763186 L13,8.71763186 L12.9103109,10.9064602 L10.7384056,10.9064602 L10.7384056,17 L8.53185105,17 L8.53185105,10.9064602 L7,10.9064602 L7,8.71763186 L8.53185105,8.71763186 L8.53185105,6.83848373 C8.53185105,5.48360613 9.08608742,4.62122713 10.1778486,4.18408166 C10.4582331,4.07006877 10.7802138,4.00878327 11.1440451,4.00080152 L11.1440451,4.00080152 Z" id="Facebook" fill="#000000"></path>
    </g>
</svg>