<?xml version="1.0" encoding="UTF-8"?>
<svg width="20px" height="20px" viewBox="0 0 20 20" version="1.1" xmlns="http://www.w3.org/2000/svg" xmlns:xlink="http://www.w3.org/1999/xlink">
    <!-- Generator: Sketch 47.1 (45422) - http://www.bohemiancoding.com/sketch -->
    <title>github</title>
    <desc>Created with Sketch.</desc>
    <defs></defs>
    <g id="Page-1" stroke="none" stroke-width="1" fill="none" fill-rule="evenodd">
        <g id="Group" transform="translate(-500.000000, 0.000000)"></g>
        <path d="M9.98736286,3 C6.12884921,3 3,6.12842024 3,9.98822079 C3,13.0750317 5.0019659,15.694274 7.77906622,16.6182583 C8.12824133,16.6821736 8.25607202,16.4664057 8.25607202,16.2815231 C8.25607202,16.1155147 8.25006655,15.6762576 8.24663486,15.0928692 C6.3030078,15.5149679 5.89292008,14.1560161 5.89292008,14.1560161 C5.5750592,13.3487095 5.11692773,13.1337995 5.11692773,13.1337995 C4.48249285,12.7001189 5.16497148,12.7091271 5.16497148,12.7091271 C5.86632443,12.7584577 6.2352318,13.4293544 6.2352318,13.4293544 C6.85851366,14.4970409 7.87043514,14.1890462 8.26894088,14.010169 C8.33242727,13.5584719 8.51302029,13.2504772 8.71248764,13.0758896 C7.1609319,12.8995862 5.52958922,12.2998973 5.52958922,9.62231616 C5.52958922,8.85962163 5.80198012,8.23591081 6.24895858,7.74732303 C6.17732192,7.57059066 5.93710317,6.8602295 6.31759251,5.89806762 C6.31759251,5.89806762 6.9044126,5.71018224 8.23891354,6.61443425 C8.79613525,6.45957895 9.39410835,6.38193682 9.98822079,6.37936304 C10.5819043,6.38193682 11.1790194,6.45957895 11.737528,6.61443425 C13.0716,5.71018224 13.6575622,5.89806762 13.6575622,5.89806762 C14.0389094,6.8602295 13.7986907,7.57059066 13.727054,7.74732303 C14.1744615,8.23591081 14.4451365,8.85962163 14.4451365,9.62231616 C14.4451365,12.3067607 12.8112201,12.8974414 11.2545168,13.0703131 C11.5054596,13.286081 11.7285198,13.7124693 11.7285198,14.3644916 C11.7285198,15.298771 11.7199406,16.0524573 11.7199406,16.2815231 C11.7199406,16.4685505 11.8456265,16.6856053 12.2003781,16.6174003 C14.9749046,15.6917002 16.9747257,13.0741738 16.9747257,9.98822079 C16.9751547,6.12842024 13.8467344,3 9.98736286,3 L9.98736286,3 Z" id="GitHub" fill="#000000"></path>
    </g>
</svg>