<?xml version="1.0" encoding="UTF-8"?>
<svg width="20px" height="20px" viewBox="0 0 20 20" version="1.1" xmlns="http://www.w3.org/2000/svg" xmlns:xlink="http://www.w3.org/1999/xlink">
    <!-- Generator: Sketch 47.1 (45422) - http://www.bohemiancoding.com/sketch -->
    <title>imdb</title>
    <desc>Created with Sketch.</desc>
    <defs></defs>
    <g id="Page-1" stroke="none" stroke-width="1" fill="none" fill-rule="evenodd">
        <g id="Group" transform="translate(-320.000000, 0.000000)"></g>
        <path d="M2,7.00000003 L3.74170617,7.00000003 L3.74170617,13.7022922 L2,13.7022922 L2,7.00000003 Z M9.81922572,7 L9.81922572,13.702292 L8.30006138,13.702292 L8.29333598,9.1770464 L7.68744643,13.702292 L6.60051836,13.702292 L5.96686499,9.27447848 L5.95970847,13.702292 L4.44097524,13.702292 L4.44097524,7 L6.69432907,7 C6.75399543,7.40705913 6.82271522,7.88318295 6.90298891,8.42802656 L7.1507078,10.1298114 L7.55147265,7 L9.81922572,7 Z M12.2548551,8.14262818 C12.4433388,8.14262818 12.5712938,8.16237326 12.6388065,8.20281189 C12.7070089,8.24273317 12.7501205,8.30550357 12.7695207,8.39172664 C12.7889208,8.47700126 12.7986641,8.67177919 12.7986641,8.97606042 L12.7986641,11.5852569 C12.7986641,12.0325822 12.7695207,12.3068578 12.7129583,12.4079112 C12.6560511,12.5093096 12.5030051,12.5596638 12.2548551,12.5596638 L12.2548551,8.14262818 Z M10.5136664,7 L11.8142552,7 C12.6538093,7 13.2221056,7.03862794 13.5178507,7.11579759 C13.8141132,7.19339836 14.0394141,7.32049117 14.1933223,7.49638624 C14.3472305,7.67366088 14.4437141,7.86973215 14.482342,8.0870143 C14.5214011,8.30377911 14.5408013,8.72877264 14.5408013,9.36337447 L14.5408013,11.7109701 C14.5408013,12.3128072 14.5120028,12.7146067 14.4559578,12.9174034 C14.3994817,13.1202863 14.3011873,13.2789367 14.1602126,13.3939583 C14.0197552,13.5082901 13.8464469,13.5883051 13.6400288,13.6344344 C13.4335245,13.6797016 13.1226904,13.702292 12.706664,13.702292 L10.5137526,13.702292 L10.5137526,7 L10.5136664,7 Z M17.3279621,9.77483098 L17.3277035,12.081212 C17.3277035,12.4061005 17.3114935,12.6107079 17.2791599,12.6964136 C17.2469987,12.7818607 17.177934,12.8239376 17.0719658,12.8239376 C16.9687568,12.8239376 16.8991748,12.7834989 16.8646856,12.7004661 C16.8297652,12.6179506 16.8122619,12.4298119 16.8122619,12.1354463 L16.8122619,9.77483098 C16.8122619,9.46968752 16.8275234,9.27887585 16.8583913,9.20308577 C16.8890005,9.12815792 16.9562545,9.0899611 17.0599808,9.0899611 C17.1663801,9.0899611 17.2368244,9.13350375 17.2732105,9.22015794 C17.3095966,9.30724324 17.3279621,9.4916744 17.3279621,9.77483098 Z M16.8122619,7 L16.8122619,8.59538554 C16.9508224,8.4338035 17.1049031,8.3130912 17.2745038,8.23367975 C17.4453117,8.15461319 17.6303465,8.11477813 17.829608,8.11477813 C18.0587889,8.11477813 18.2577918,8.15073315 18.4269614,8.22203963 C18.5957,8.29429457 18.7245173,8.39483067 18.8129822,8.52407906 C18.9013608,8.65375856 18.9549053,8.78085138 18.9730984,8.90466771 C18.9906017,9.02857027 19,9.29284399 19,9.69809244 L19,12.1704529 C19,12.5731146 18.9730984,12.872826 18.918433,13.069932 C18.8650609,13.2672966 18.7374507,13.4383632 18.5383617,13.5828731 C18.3387552,13.7273829 18.1020729,13.7996379 17.8279698,13.7996379 C17.63095,13.7996379 17.4473811,13.7565263 17.2767456,13.6703032 C17.1058515,13.5837353 16.9496153,13.4544007 16.8090717,13.2826443 L16.7009479,13.702292 L15.140569,13.702292 L15.140569,7 L16.8122619,7 L16.8122619,7 Z" id="IMDB" fill="#000000"></path>
    </g>
</svg>