<?xml version="1.0" encoding="UTF-8"?>
<svg width="20px" height="20px" viewBox="0 0 20 20" version="1.1" xmlns="http://www.w3.org/2000/svg" xmlns:xlink="http://www.w3.org/1999/xlink">
    <!-- Generator: Sketch 47.1 (45422) - http://www.bohemiancoding.com/sketch -->
    <title>vk</title>
    <desc>Created with Sketch.</desc>
    <defs></defs>
    <g id="Page-1" stroke="none" stroke-width="1" fill="none" fill-rule="evenodd">
        <g id="Group" transform="translate(-680.000000, 0.000000)"></g>
        <path d="M9.82833636,14.9622404 L10.7846678,14.9622404 C10.7846678,14.9622404 11.0734759,14.9308625 11.2211577,14.7742033 C11.3568787,14.6302225 11.3525675,14.3600108 11.3525675,14.3600108 C11.3525675,14.3600108 11.3338361,13.0947689 11.9293327,12.9084376 C12.5165531,12.7248172 13.2704673,14.1312552 14.069494,14.6721028 C14.6737531,15.0812424 15.1329396,14.9917004 15.1329396,14.9917004 L17.2696687,14.9622404 C17.2696687,14.9622404 18.3873728,14.894238 17.857366,14.0277624 C17.8139649,13.9569937 17.5485921,13.386806 16.2685989,12.2153291 C14.9286801,10.9892105 15.1083166,11.187584 16.7222117,9.06665467 C17.7050645,7.77504166 18.0979382,6.98653606 17.9751692,6.64884746 C17.8581983,6.32711063 17.1352383,6.41208832 17.1352383,6.41208832 L14.7294705,6.42675841 C14.7294705,6.42675841 14.5510122,6.40279389 14.4188262,6.48078231 C14.2895017,6.55707414 14.2065336,6.73529125 14.2065336,6.73529125 C14.2065336,6.73529125 13.825602,7.73472889 13.3179832,8.58480089 C12.2467196,10.3783411 11.8183002,10.4732863 11.6431712,10.3617531 C11.235765,10.1021636 11.3375581,9.31909817 11.3375581,8.76263996 C11.3375581,7.02442379 11.6049602,6.2997068 10.8168656,6.1120846 C10.5553831,6.04986352 10.3627758,6.00871167 9.69393394,6.0019898 C8.83547729,5.99338692 8.10906643,6.00458081 7.69766709,6.20330469 C7.42396196,6.33546455 7.21279156,6.62989899 7.34147075,6.6468558 C7.50049616,6.66772218 7.86051734,6.74266778 8.05142264,6.99875345 C8.29801723,7.32954499 8.28940433,8.07216853 8.28940433,8.07216853 C8.28940433,8.07216853 8.43109171,10.1183182 7.95856041,10.3724214 C7.63431877,10.5467474 7.18943105,10.1908572 6.23434343,8.56364868 C5.74506325,7.73014621 5.37552206,6.80872466 5.37552206,6.80872466 C5.37552206,6.80872466 5.30436509,6.63655631 5.17725698,6.54439572 C5.02311315,6.4327334 4.80769708,6.39734447 4.80769708,6.39734447 L2.52150928,6.41206988 C2.52150928,6.41206988 2.17836789,6.42153029 2.05228847,6.56864608 C1.940115,6.69963492 2.04332956,6.97025236 2.04332956,6.97025236 C2.04332956,6.97025236 3.83305509,11.0989549 5.85976167,13.1796083 C7.71829691,15.0874663 9.82833636,14.9622496 9.82833636,14.9622496" id="VK" fill="#000000"></path>
    </g>
</svg>