<?xml version="1.0" encoding="UTF-8"?>
<svg width="20px" height="20px" viewBox="0 0 20 20" version="1.1" xmlns="http://www.w3.org/2000/svg" xmlns:xlink="http://www.w3.org/1999/xlink">
    <!-- Generator: Sketch 47.1 (45422) - http://www.bohemiancoding.com/sketch -->
    <title>yelp</title>
    <desc>Created with Sketch.</desc>
    <defs></defs>
    <g id="Page-1" stroke="none" stroke-width="1" fill="none" fill-rule="evenodd">
        <g id="Group" transform="translate(-480.000000, 0.000000)"></g>
        <path d="M5.62066329,3.97765496 C5.40053007,3.62029585 4.95883421,3.46305784 5.93656874,2.70116821 C6.71847048,2.08936941 8.21794932,1.9164076 8.8368953,2.03505082 C9.45584129,2.15369405 9.78032336,2.4967588 9.78318224,2.91558368 L9.81605928,8.24738165 C9.81891815,8.66620653 9.60164381,9.05072493 9.33005088,9.10218465 C9.05702852,9.1550738 8.65678631,8.90349298 8.4366531,8.54899274 L5.62066329,3.97765496 Z M11.2312014,10.0184534 C11.0496629,9.72256007 11.1225642,9.21653956 11.3927277,8.89920467 L12.9922671,7.00806024 C13.2624306,6.68786648 13.7398623,6.64355395 14.1615461,7.00663081 C14.5832298,7.36970767 15.356555,8.43034951 15.4709099,8.7905675 C15.5824059,9.15078549 15.5652527,9.76544316 15.0663794,9.88408639 L12.3018493,10.3929658 C11.8930304,10.4858791 11.4127398,10.3172056 11.2312014,10.0184534 Z M11.4584818,13.0116933 C11.2569312,12.6428987 11.2183364,12.2355094 11.3712861,12.1068601 C11.5270947,11.9782108 11.9830849,11.9667753 12.3847566,12.0839891 L14.8662583,12.7901307 C15.2679299,12.9073445 15.5509583,13.3819174 15.3765671,13.9008028 C15.2021758,14.4196883 14.2601772,15.8019533 14.2601772,15.8019533 C14.0343262,16.1564535 13.2238358,16.2207782 13.0237147,15.8548425 L11.4584818,13.0116933 Z M8.44237084,13.0645825 C8.7111049,12.7458182 9.16280682,12.502814 9.44726467,12.5314027 C9.72886365,12.5571326 9.95471461,12.91878 9.94756743,13.3376049 L9.88324279,16.6538974 C9.87466617,17.0727223 9.18281893,17.4944061 8.78829447,17.3514624 L6.71989992,16.6367442 C6.32680489,16.4938005 6.19243787,15.7433464 6.45974248,15.4217232 L8.44237084,13.0645825 Z M7.98781005,10.0927841 C8.37518733,10.2457338 8.66393349,10.645976 8.62390927,10.9818936 C8.58531449,11.3163817 8.23081425,11.7051884 7.83628979,11.8452732 L5.00028786,12.8415904 C4.60433397,12.9816752 4.10403121,12.6400399 4.03112995,12.2154972 C3.96108756,11.7852369 4.03112995,9.71684232 4.03112995,9.71684232 C4.15120261,9.12219676 4.60004566,8.7591199 4.98885237,8.91349904 L7.98781005,10.0927841 Z" id="Yelp" fill="#000000"></path>
    </g>
</svg>