<?xml version="1.0" encoding="UTF-8"?>
<svg width="22px" height="22px" viewBox="0 0 22 22" version="1.1" xmlns="http://www.w3.org/2000/svg" xmlns:xlink="http://www.w3.org/1999/xlink">
    <!-- Generator: Sketch 49.3 (51167) - http://www.bohemiancoding.com/sketch -->
    <title>facebook</title>
    <desc>Created with Sketch.</desc>
    <defs></defs>
    <g id="Page-1" stroke="none" stroke-width="1" fill="none" fill-rule="evenodd">
        <path d="M12.5221646,5.01133486 C13.0019101,5.01200563 13.5029657,5.05670744 14,5.1019216 L13.9459811,7.14538986 L12.6108362,7.14538986 C11.9847996,7.13106114 11.7587276,7.38229735 11.7384056,8.11235061 L11.7384056,9.71763186 L14,9.71763186 L13.9103109,11.9064602 L11.7384056,11.9064602 L11.7384056,18 L9.53185105,18 L9.53185105,11.9064602 L8,11.9064602 L8,9.71763186 L9.53185105,9.71763186 L9.53185105,7.83848373 C9.53185105,6.48360613 10.0860874,5.62122713 11.1778486,5.18408166 C11.4582331,5.07006877 11.7802138,5.00878327 12.1440451,5.00080152 C12.2653211,4.99814206 12.3916197,5.00221383 12.5221646,5.01133486 Z" id="Facebook" fill="#000000" fill-rule="nonzero"></path>
    </g>
</svg>