<?xml version="1.0" encoding="UTF-8"?>
<svg width="20px" height="20px" viewBox="0 0 20 20" version="1.1" xmlns="http://www.w3.org/2000/svg" xmlns:xlink="http://www.w3.org/1999/xlink">
    <!-- Generator: Sketch 47.1 (45422) - http://www.bohemiancoding.com/sketch -->
    <title>instagram</title>
    <desc>Created with Sketch.</desc>
    <defs></defs>
    <g id="Page-1" stroke="none" stroke-width="1" fill="none" fill-rule="evenodd">
        <g id="Group" transform="translate(-80.000000, 0.000000)"></g>
        <path d="M13.8482055,5.70473883 C13.3705245,5.70473883 12.9828458,6.0921135 12.9828458,6.56979451 C12.9828458,7.04777958 13.3705245,7.43485018 13.8482055,7.43485018 C14.3258865,7.43485018 14.7132612,7.04777958 14.7132612,6.56979451 C14.7132612,6.0921135 14.3258865,5.70473883 13.8482055,5.70473883 M10,12.821 C8.67277047,12.821 7.597,11.7449255 7.597,10.418 C7.597,9.09077047 8.67277047,8.015 10,8.015 C11.3269255,8.015 12.403,9.09077047 12.403,10.418 C12.403,11.7449255 11.3269255,12.821 10,12.821 M10,6.71604821 C7.9554888,6.71604821 6.29804821,8.3734888 6.29804821,10.418 C6.29804821,12.4625112 7.9554888,14.1199518 10,14.1199518 C12.0442071,14.1199518 13.7019518,12.4625112 13.7019518,10.418 C13.7019518,8.3734888 12.0442071,6.71604821 10,6.71604821 M15.8680877,13.3309116 C15.8358571,14.0339023 15.7181852,14.4154998 15.6196692,14.6693914 C15.4889227,15.0062918 15.3326349,15.2461965 15.0805678,15.4985678 C14.8281965,15.7506349 14.5882918,15.9072267 14.2513914,16.0376692 C13.9974998,16.1364893 13.6155983,16.2538571 12.9129116,16.2860877 C12.1530612,16.3207507 11.9250149,16.3280482 10,16.3280482 C8.07498507,16.3280482 7.84693876,16.3207507 7.08678439,16.2860877 C6.38409768,16.2538571 6.00219613,16.1364893 5.74830457,16.0376692 C5.41170821,15.9072267 5.17149943,15.7506349 4.91943224,15.4985678 C4.66706099,15.2461965 4.51107731,15.0062918 4.3800267,14.6693914 C4.28151069,14.4154998 4.1638388,14.0339023 4.13191231,13.3309116 C4.09724927,12.5707572 4.08995179,12.3427109 4.08995179,10.418 C4.08995179,8.49298507 4.09724927,8.26493876 4.13191231,7.50478439 C4.1638388,6.80209768 4.28151069,6.42050019 4.3800267,6.16630457 C4.51107731,5.83001227 4.66706099,5.58980349 4.91943224,5.33743224 C5.17149943,5.08506099 5.41170821,4.92907731 5.74830457,4.79833076 C6.00219613,4.69951069 6.38409768,4.58214286 7.08678439,4.54991231 C7.84693876,4.51524927 8.07498507,4.50795179 10,4.50795179 C11.9247109,4.50795179 12.1527572,4.51524927 12.9129116,4.54991231 C13.6155983,4.58214286 13.9974998,4.69951069 14.2513914,4.79833076 C14.5882918,4.92907731 14.8281965,5.08506099 15.0805678,5.33743224 C15.3326349,5.58980349 15.4889227,5.83001227 15.6196692,6.16630457 C15.7181852,6.42050019 15.8358571,6.80209768 15.8680877,7.50478439 C15.9027507,8.26493876 15.9097441,8.49298507 15.9097441,10.418 C15.9097441,12.3427109 15.9027507,12.5707572 15.8680877,13.3309116 M17.1655192,7.44579641 C17.1305521,6.67834455 17.0086233,6.15444616 16.8304431,5.69592104 C16.6461817,5.22188878 16.3998917,4.81961508 15.9988342,4.4188617 C15.5980809,4.01841238 15.1961112,3.7718183 14.722079,3.58755688 C14.2635538,3.40937669 13.7396554,3.28744793 12.9722036,3.25248083 C12.2032314,3.21720967 11.9575495,3.209 10,3.209 C8.0421464,3.209 7.79676857,3.21720967 7.02779641,3.25248083 C6.26034455,3.28744793 5.73644616,3.40937669 5.27761698,3.58755688 C4.80358471,3.7718183 4.40161508,4.01841238 4.0008617,4.4188617 C3.60010831,4.81961508 3.35351424,5.22188878 3.16925282,5.69592104 C2.99107263,6.15444616 2.86944793,6.67834455 2.83417677,7.44579641 C2.79920967,8.21476857 2.791,8.4601464 2.791,10.418 C2.791,12.3755495 2.79920967,12.6212314 2.83417677,13.3902036 C2.86944793,14.1576554 2.99107263,14.6815538 3.16925282,15.140079 C3.35351424,15.6141112 3.60010831,16.0160809 4.0008617,16.4168342 C4.40161508,16.8178917 4.80358471,17.0641817 5.27761698,17.2484431 C5.73644616,17.4266233 6.26034455,17.5485521 7.02779641,17.5835192 C7.79676857,17.6187903 8.0421464,17.627 10,17.627 C11.9575495,17.627 12.2032314,17.6187903 12.9722036,17.5835192 C13.7396554,17.5485521 14.2635538,17.4266233 14.722079,17.2484431 C15.1961112,17.0641817 15.5980809,16.8178917 15.9988342,16.4168342 C16.3998917,16.0160809 16.6461817,15.6141112 16.8304431,15.140079 C17.0086233,14.6815538 17.1305521,14.1576554 17.1655192,13.3902036 C17.2004863,12.6212314 17.209,12.3755495 17.209,10.418 C17.209,8.4601464 17.2004863,8.21476857 17.1655192,7.44579641" id="Instagram" fill="#000000"></path>
    </g>
</svg>