<?xml version="1.0" encoding="UTF-8"?>
<svg width="20px" height="20px" viewBox="0 0 20 20" version="1.1" xmlns="http://www.w3.org/2000/svg" xmlns:xlink="http://www.w3.org/1999/xlink">
    <!-- Generator: Sketch 47.1 (45422) - http://www.bohemiancoding.com/sketch -->
    <title>issuu</title>
    <desc>Created with Sketch.</desc>
    <defs></defs>
    <g id="Page-1" stroke="none" stroke-width="1" fill="none" fill-rule="evenodd">
        <g id="Group" transform="translate(-600.000000, 0.000000)"></g>
        <path d="M10.503621,14.9639269 C8.01177626,14.9403607 6.01054795,12.9010228 6.03405479,10.4094749 C6.057621,7.91763014 8.0969589,5.91640183 10.5888037,5.93996804 C13.0806484,5.96347489 15.0818174,8.00281279 15.0583105,10.4946575 C15.0348037,12.9862055 12.9955251,14.9874338 10.503621,14.9639269 M10.4989315,4.0002968 C10.4886621,4.0002968 10.4783927,4.00071233 10.4680639,4.00071233 L10.4680639,4 L4,4 L4,10.499347 C4,14.088653 6.90968493,16.9982785 10.4989315,16.9982785 C14.0882968,16.9982785 16.9979817,14.088653 16.9979817,10.499347 C16.9979817,6.9100411 14.0882968,4.0002968 10.4989315,4.0002968 M10.5301553,12.149516 C9.60573059,12.14079 8.86324658,11.3841781 8.87203196,10.4598721 C8.88075799,9.53538813 9.6373105,8.79296347 10.5617945,8.8016895 C11.4862192,8.81041553 12.2287626,9.56696804 12.2199772,10.4914521 C12.2112511,11.4158174 11.4546393,12.158242 10.5301553,12.149516 M10.5771689,7.16980365 C8.75147032,7.15252968 7.25730137,8.61873973 7.2400274,10.4444977 C7.22275342,12.2700183 8.68908219,13.7641872 10.5147215,13.7814018 C12.3404201,13.7986164 13.8346484,12.3324064 13.8519224,10.5069452 C13.8690776,8.68118721 12.4029269,7.18701826 10.5771689,7.16980365" id="Fill-1" fill="#000000"></path>
    </g>
</svg>