<?xml version="1.0" encoding="UTF-8"?>
<svg width="20px" height="20px" viewBox="0 0 20 20" version="1.1" xmlns="http://www.w3.org/2000/svg" xmlns:xlink="http://www.w3.org/1999/xlink">
    <!-- Generator: Sketch 47.1 (45422) - http://www.bohemiancoding.com/sketch -->
    <title>posterous</title>
    <desc>Created with Sketch.</desc>
    <defs></defs>
    <g id="Page-1" stroke="none" stroke-width="1" fill="none" fill-rule="evenodd">
        <g id="Group" transform="translate(-420.000000, 0.000000)"></g>
        <path d="M7.05846112,16.5421687 L7.05846112,8.52053669 C7.05846112,7.61007667 7.03114732,6.87883352 7,6.15429901 L8.05900876,6.15429901 L8.13567908,7.4356517 L8.24685104,7.4356517 L8.29812432,7.40019168 C8.84248357,6.48398138 9.73952629,6 10.8924562,6 C12.7224808,6 14,7.52573932 14,9.71084337 C14,12.433598 12.3223576,13.6521769 10.6600493,13.6521769 C9.6887322,13.6521769 8.85206736,13.2271358 8.42127601,12.5160186 L8.39971249,12.4796002 L8.28470701,12.4796002 L8.25451807,12.5533954 L8.25451807,16.5421687 L7.05846112,16.5421687 L7.05846112,16.5421687 Z M10.4755613,6.93394031 C9.46974261,6.93394031 8.59570099,7.64314074 8.34939759,8.65902245 C8.2851862,8.89190854 8.25499726,9.06968784 8.25499726,9.21584064 L8.25499726,10.5130066 C8.25499726,10.7449343 8.27512322,10.9284639 8.31920865,11.0894715 C8.5770126,12.0732475 9.42565717,12.7340498 10.42908,12.7340498 C11.8532311,12.7340498 12.7737541,11.5715361 12.7737541,9.77265882 C12.7737541,8.10124589 11.8287924,6.93394031 10.4755613,6.93394031 L10.4755613,6.93394031 L10.4755613,6.93394031 Z" id="Posterous" fill="#000000"></path>
    </g>
</svg>