<?xml version="1.0" encoding="UTF-8"?>
<svg width="20px" height="20px" viewBox="0 0 20 20" version="1.1" xmlns="http://www.w3.org/2000/svg" xmlns:xlink="http://www.w3.org/1999/xlink">
    <!-- Generator: Sketch 47.1 (45422) - http://www.bohemiancoding.com/sketch -->
    <title>snapchat</title>
    <desc>Created with Sketch.</desc>
    <defs></defs>
    <g id="Page-1" stroke="none" stroke-width="1" fill="none" fill-rule="evenodd">
        <g id="Group" transform="translate(-620.000000, 0.000000)"></g>
        <path d="M10.0566498,16.2552582 C10.0171479,16.2552582 9.97945063,16.2538004 9.95079124,16.252412 C9.92804038,16.254402 9.90455095,16.2552582 9.88103107,16.2552582 C9.05114997,16.2552582 8.49626649,15.8578315 8.00659759,15.5069073 C7.6556267,15.2557524 7.32462755,15.0186509 6.93685022,14.9533052 C6.74640692,14.9213112 6.55695346,14.9050827 6.37390343,14.9050827 C6.04409207,14.9050827 5.78343937,14.9569073 5.59314075,14.9946013 C5.47604385,15.0177176 5.37506596,15.0376174 5.29702168,15.0376174 C5.21528456,15.0376174 5.11597415,15.0192525 5.07458403,14.8760814 C5.04177497,14.7631612 5.01824747,14.6537505 4.9955423,14.5483891 C4.93872605,14.2850938 4.89752628,14.1243907 4.80021076,14.1091496 C3.7593512,13.9464566 3.14436982,13.7068174 3.02186693,13.4165801 C3.00941791,13.3875941 3.0021084,13.3566028 3.00026579,13.3250484 C2.99548415,13.2386922 3.05572673,13.162579 3.13996888,13.1485334 C3.96655308,13.0106535 4.70153232,12.5680742 5.32457702,11.8326814 C5.80722575,11.2633523 6.04423674,10.7193839 6.06968298,10.6593217 C6.07081748,10.6565604 6.07206619,10.6538454 6.0734215,10.6511921 C6.19351833,10.4043566 6.21741131,10.1910423 6.1446588,10.0173812 C6.01054445,9.69698554 5.56636204,9.55423096 5.27249673,9.45977599 C5.19941682,9.43635893 5.13028862,9.41417597 5.07520838,9.39202387 C4.81470797,9.28778865 4.38628669,9.06755569 4.4433542,8.76357358 C4.48492706,8.54191369 4.77436097,8.38754314 5.00826542,8.38754314 C5.07321349,8.38754314 5.1307683,8.39908198 5.17921668,8.4221211 C5.44353175,8.54756742 5.68131937,8.61115445 5.88582587,8.61115445 C6.14015127,8.61115445 6.26298156,8.51305888 6.29268407,8.48518363 C6.28497863,8.34448074 6.27661076,8.20383184 6.26756523,8.0632138 C6.20787087,7.10121698 6.13341281,5.90402374 6.4357069,5.2174936 C7.34048767,3.16246163 9.25927315,3.00266103 9.82562343,3.00266103 C9.91910907,3.00186658 10.0125871,3.00097957 10.1060575,3 C10.6739611,3 12.5967363,3.15998571 13.5020805,5.21625178 C13.8043746,5.903237 13.729848,7.10144066 13.6699633,8.0644479 L13.6671461,8.11053384 C13.6589381,8.24130222 13.6513545,8.36505937 13.6449587,8.48502937 C13.6729176,8.51111517 13.7853242,8.60103482 14.0140206,8.61013632 C14.2089791,8.60256974 14.433008,8.53928352 14.6797118,8.42226764 C14.755982,8.38600051 14.8404221,8.3784725 14.8977561,8.3784725 C14.9844119,8.3784725 15.0725905,8.39555708 15.1460892,8.42661785 L15.1500028,8.42815276 C15.3593595,8.50342518 15.4964662,8.65386204 15.4994281,8.81190404 C15.5020549,8.95923251 15.3939731,9.17942691 14.8623963,9.392101 C14.8079557,9.41394458 14.7384924,9.43627409 14.665108,9.45984541 C14.3709838,9.55441607 13.9271744,9.69709353 13.7930601,10.0173041 C13.7201934,10.1909729 13.7441625,10.4041946 13.8642974,10.6509607 C13.8656299,10.6536603 13.866772,10.6563907 13.8680664,10.6592446 C13.9050556,10.7470663 14.800334,12.8149869 16.7977881,13.1483406 C16.8819922,13.1624556 16.9422119,13.2385225 16.9375216,13.3248555 C16.9355648,13.3567185 16.9280802,13.3879875 16.9154104,13.4172203 C16.7937526,13.7058378 16.1788093,13.9451453 15.1376452,14.1080543 C15.0399261,14.1233495 14.9987644,14.2833352 14.9424736,14.5452422 C14.9191669,14.6534034 14.8954642,14.7594435 14.8630968,14.8708827 C14.8328004,14.975681 14.7654158,15.0268962 14.6571893,15.0268962 L14.6408723,15.0268962 C14.5704117,15.0268962 14.4705911,15.0139304 14.3446848,14.9889784 C14.1246151,14.9455844 13.8777972,14.9051984 13.5639221,14.9051984 C13.3809101,14.9051984 13.1915023,14.9214577 13.0008306,14.9534209 C12.6134644,15.0187588 12.2825034,15.2554902 11.9321568,15.5063751 C11.4415209,15.857793 10.8864547,16.2552582 10.0566498,16.2552582" id="Snapchat" fill="#000000"></path>
    </g>
</svg>