<?xml version="1.0" encoding="UTF-8"?>
<svg width="20px" height="20px" viewBox="0 0 20 20" version="1.1" xmlns="http://www.w3.org/2000/svg" xmlns:xlink="http://www.w3.org/1999/xlink">
    <!-- Generator: Sketch 47.1 (45422) - http://www.bohemiancoding.com/sketch -->
    <title>vimeo</title>
    <desc>Created with Sketch.</desc>
    <defs></defs>
    <g id="Page-1" stroke="none" stroke-width="1" fill="none" fill-rule="evenodd">
        <g id="Group" transform="translate(-280.000000, 0.000000)"></g>
        <path d="M10.4701914,7.56818263 C10.8011188,7.57388269 11.1797516,7.53947488 11.4635768,7.64730127 C11.9018285,7.88439345 11.9079347,8.34133347 11.8767548,8.72858932 C11.6813427,9.58552855 11.0740994,11.1448039 10.294371,11.2691767 C10.1302778,11.2867586 9.96031219,11.1959128 9.78449177,10.9966569 C9.10303996,10.1430372 9.18745486,9.02010809 9.02846397,8.0780583 C8.87970056,7.28992766 8.76753944,5.69929317 7.83288513,5.35286079 C6.80342317,5.22713072 5.89942139,5.9941947 5.23953395,6.60117707 C4.83514699,6.97625215 4.421969,7.3337629 4,7.67367415 L4,7.74400183 C4.10038994,7.86471929 4.18175787,7.98778921 4.27252165,8.10443118 C4.42654913,8.25943514 4.70758224,8.22150918 4.87910209,8.16596789 C5.50275118,8.00382567 5.72195353,7.84490446 6.0570989,8.43848764 C6.56216415,9.80384852 6.94455598,11.3426761 7.27905081,12.6493573 C7.51283922,13.3946567 7.82117373,14.3465418 8.57133088,14.6536962 C9.03478999,14.8506189 9.83429115,14.5859847 10.1888787,14.3723854 C11.7062986,13.4137647 12.8805417,11.87986 13.7228691,10.3988717 C14.3378239,9.15101427 15.86676,6.66837165 15.0063582,5.49351614 C13.2885488,4.07389043 11.0068657,6.01392338 10.4701914,7.56818263 Z" id="Vimeo" fill="#000000"></path>
    </g>
</svg>