<?xml version="1.0" encoding="UTF-8"?>
<svg width="20px" height="20px" viewBox="0 0 20 20" version="1.1" xmlns="http://www.w3.org/2000/svg" xmlns:xlink="http://www.w3.org/1999/xlink">
    <!-- Generator: Sketch 47.1 (45422) - http://www.bohemiancoding.com/sketch -->
    <title>wordpress</title>
    <desc>Created with Sketch.</desc>
    <defs></defs>
    <g id="Page-1" stroke="none" stroke-width="1" fill="none" fill-rule="evenodd">
        <g id="Group" transform="translate(-300.000000, 0.000000)"></g>
        <path d="M8.34163804,15.9225289 L10.1708483,10.6635493 L12.0817194,15.8082032 C10.794325,16.2391657 9.57723419,16.2652881 8.34163804,15.9225289 L8.34163804,15.9225289 Z M6.93706547,6.62948978 C6.26742311,6.72051487 5.61617167,6.75298157 4.97719572,6.72748438 C6.19044589,4.99293886 8.1330077,4.01709861 10.0565199,4 C11.6298149,4.02977882 13.0965102,4.6244787 14.172243,5.60055899 C13.6733411,5.56368228 13.3746179,5.78248358 13.1596433,6.15585617 C12.8472155,7.11975587 13.5074042,7.83325282 13.878262,8.55669466 C14.228909,9.21769281 14.2011091,9.9693225 14.0089187,10.6145562 L13.0943163,13.7340106 L10.889467,7.18478416 C11.1192097,7.16340113 11.3504428,7.15652094 11.5590899,7.11945442 C11.8060483,7.06446591 11.8602246,6.83466188 11.6897465,6.69481672 C11.6353107,6.65125798 11.5754209,6.62948698 11.5100912,6.62948698 L10.1871794,6.72748159 L9.18274653,6.72748159 C8.89916535,6.74422572 8.0984281,6.47028518 8.03132319,6.84180723 C7.99664869,6.98491525 8.10346893,7.09708612 8.22730961,7.11945442 C8.44578435,7.14776509 8.69609778,7.17989964 8.89693243,7.2011152 L9.86053347,9.78160907 L8.52129063,13.7340106 L6.30010752,7.18478416 C6.53514496,7.16436966 6.77329454,7.15725222 6.98606137,7.11945442 C7.16027679,7.09761923 7.23648365,7.0105185 7.21471266,6.85813827 C7.18382855,6.72264173 7.0630665,6.63109469 6.93706547,6.62948698 L6.93706547,6.62948978 Z M4.48723107,7.64208673 L7.41070187,15.5468871 C6.35584685,15.0269538 5.52188372,14.2623481 4.92819981,13.3502019 C3.84215086,11.6170743 3.72791175,9.41829859 4.48723107,7.64208673 L4.48723107,7.64208673 Z M15.9116284,11.700647 C15.43167,13.2679746 14.4513863,14.5661065 13.0943163,15.3509007 C13.1596461,15.176688 13.2630778,14.8827098 13.4046284,14.4689604 L15.103182,9.53662674 C15.2665035,9.05755318 15.3808292,8.524027 15.4461589,7.93606775 C15.468209,7.69551219 15.4689487,7.45298609 15.4298279,7.23378286 C16.1257852,8.73480374 16.3232119,10.2216288 15.9116284,11.7006498 L15.9116284,11.700647 Z" id="Shape" fill="#000000"></path>
    </g>
</svg>