<?xml version="1.0" encoding="UTF-8"?>
<svg width="20px" height="20px" viewBox="0 0 20 20" version="1.1" xmlns="http://www.w3.org/2000/svg" xmlns:xlink="http://www.w3.org/1999/xlink">
    <!-- Generator: Sketch 47.1 (45422) - http://www.bohemiancoding.com/sketch -->
    <title>500px</title>
    <desc>Created with Sketch.</desc>
    <defs></defs>
    <g id="Page-1" stroke="none" stroke-width="1" fill="none" fill-rule="evenodd">
        <g id="Group" transform="translate(-380.000000, 0.000000)"></g>
        <path d="M17.8566696,9.72940186 C17.7378078,9.40253183 17.5691961,9.11788196 17.3514172,8.87504886 C17.1333694,8.63243986 16.8658855,8.44182171 16.5488758,8.30301512 C16.2316868,8.16443263 15.8750117,8.09500692 15.4788953,8.09500692 C15.1616615,8.09500692 14.8670168,8.14471196 14.5946475,8.2435842 C14.3220093,8.34268055 14.0693607,8.47386779 13.8367017,8.63732521 C13.6038186,8.80073781 13.385726,8.99158007 13.1827824,9.20935895 C12.9796147,9.42736194 12.7838423,9.65020546 12.595734,9.87793432 C12.3974069,9.64021067 12.196794,9.41503653 11.9938056,9.20191889 C11.7906379,8.98902534 11.5726349,8.80073781 11.3399311,8.63732521 C11.1070031,8.47391261 10.8543545,8.34272537 10.5819852,8.2435842 C10.309347,8.14466714 10.009817,8.09500692 9.68285736,8.09500692 C9.28647199,8.09500692 8.92979687,8.16698735 8.612832,8.31045519 C8.29559821,8.45414712 8.02811428,8.64732 7.81029057,8.889929 C7.59797969,9.1263977 7.43537384,9.40526583 7.32189038,9.72604038 C7.22705191,9.50951644 7.10630765,9.31594019 6.9596128,9.14517715 C6.76334736,8.9170001 6.52257597,8.7351666 6.23734344,8.59958703 C5.95193163,8.46418673 5.62376184,8.39632972 5.2529237,8.39632972 C4.95330405,8.39632972 4.68582012,8.44097013 4.45038227,8.53002686 C4.21498924,8.61930769 3.99375923,8.76721268 3.78696117,8.97401075 L3.76558218,8.95258693 L4.06520183,7.25163475 L7.1576262,7.25163475 L7.1576262,6 L2.97370784,6 L2.23539303,10.1400399 L3.60503803,10.1400399 C3.75482545,9.93328664 3.91532477,9.78166162 4.086536,9.68538892 C4.25774723,9.58911622 4.47875313,9.54097986 4.7499571,9.54097986 C4.95679998,9.54097986 5.1386783,9.57674598 5.29568168,9.64796447 C5.45255061,9.71931742 5.58808536,9.81913088 5.70228594,9.94749448 C5.81630724,10.0758581 5.90191285,10.2256455 5.95910278,10.3967671 C6.01611343,10.5679335 6.0447084,10.7498118 6.0447084,10.9423572 C6.0447084,11.1279556 6.01427583,11.3079066 5.95376924,11.4826138 C5.89308338,11.6574554 5.80747776,11.8107388 5.6969524,11.9426431 C5.58624776,12.0746819 5.45084746,12.1816666 5.29034814,12.2635521 C5.12984882,12.345617 4.94958401,12.3865822 4.7499571,12.3865822 C4.40753464,12.3865822 4.12566359,12.2849311 3.90465768,12.0816738 C3.6834725,11.8784165 3.55506408,11.6056439 3.51943242,11.263311 L2,11.263311 C2.00703669,11.6556178 2.08726394,11.9997882 2.24077139,12.2955982 C2.39409956,12.5916323 2.5992393,12.83953 2.85605614,13.0391121 C3.11282816,13.2388735 3.40711427,13.3867785 3.73882482,13.4830512 C4.07053537,13.5793239 4.41829137,13.627505 4.78209282,13.627505 C5.16014693,13.6344969 5.51673241,13.5721975 5.852163,13.4402484 C6.18736948,13.3083888 6.48161077,13.121177 6.73493167,12.8786576 C6.9880733,12.6362727 7.18967228,12.3491129 7.33950452,12.017492 C7.34322455,12.00929 7.34631711,12.0008639 7.34990268,11.9926171 C7.46733028,12.2956879 7.63011541,12.5594069 7.84000603,12.7826538 C8.06782453,13.0254869 8.34019381,13.2186598 8.65738278,13.3621276 C8.97434765,13.5058196 9.33590811,13.5775759 9.74228827,13.5775759 C10.0692479,13.5775759 10.3639374,13.5306945 10.626536,13.4364387 C10.8889553,13.342407 11.1318332,13.2187046 11.3547664,13.0650179 C11.5776995,12.9115553 11.7880832,12.7332625 11.9864103,12.5300948 C12.1844685,12.3271961 12.387681,12.1165884 12.595734,11.8986302 C12.7837975,12.1165884 12.9821246,12.3271961 13.1902225,12.5300948 C13.3982755,12.7332177 13.6186539,12.9115553 13.8515818,13.0650179 C14.0841961,13.2187046 14.3345589,13.342407 14.6020428,13.4364387 C14.8695715,13.5307393 15.156821,13.5775759 15.4640151,13.5775759 C15.8601764,13.5775759 16.2194062,13.5058196 16.5414806,13.3621276 C16.8633308,13.2186598 17.1333694,13.0203775 17.3514172,12.7678185 C17.5691961,12.5152147 17.7378078,12.2206149 17.8566696,11.8837052 C17.9755763,11.5471093 18.0350072,11.1854144 18.0350072,10.7991135 C18.0350072,10.4128125 17.9755763,10.0562719 17.8566696,9.72940186 L17.8566696,9.72940186 Z M11.3027307,11.2969258 C11.1541086,11.4406177 10.9955365,11.5694744 10.8271489,11.6832267 C10.6585821,11.7972032 10.4802445,11.8912349 10.2921363,11.965546 C10.1038039,12.0398122 9.91547157,12.0769677 9.72736331,12.0769677 C9.3606934,12.0769677 9.07344399,11.9632154 8.86539097,11.7352176 C8.65733796,11.5074887 8.55331145,11.2151747 8.55331145,10.8585892 C8.55331145,10.5317192 8.65478323,10.2371193 8.85799572,9.97452076 C9.06093929,9.71214627 9.33586329,9.58077975 9.68281254,9.58077975 C9.87092079,9.58077975 10.0592083,9.6229999 10.2475407,9.70708165 C10.4356041,9.79134267 10.6164964,9.89787908 10.7899934,10.0265116 C10.9632215,10.1553682 11.1292337,10.2964606 11.2878506,10.4499232 C11.4461985,10.6036548 11.5850948,10.744792 11.7039566,10.8733797 C11.5850948,11.0122759 11.4513528,11.1534131 11.3027307,11.2969258 L11.3027307,11.2969258 Z M16.3408228,11.7203823 C16.1424956,11.9581059 15.8601316,12.0769677 15.4937306,12.0769677 C15.2856328,12.0769677 15.0899052,12.0424118 14.9066822,11.9729412 C14.7232352,11.9037845 14.5474524,11.8120834 14.3791096,11.6980621 C14.2105428,11.5843097 14.05215,11.4554531 13.9035727,11.3117611 C13.7549506,11.1682933 13.6160992,11.0220466 13.4874667,10.8734693 C13.6063285,10.7448816 13.7401153,10.6036996 13.8886926,10.4500129 C14.0373147,10.2965503 14.1933768,10.1554579 14.3568342,10.0266012 C14.5202917,9.89796872 14.6935646,9.79138749 14.8769668,9.70717129 C15.0601897,9.62313436 15.2508078,9.58086939 15.449135,9.58086939 C15.8155808,9.58086939 16.1053849,9.70484066 16.3185474,9.95229019 C16.5314858,10.2000086 16.638067,10.4971632 16.638067,10.8437987 C16.6380222,11.1906135 16.538881,11.4826138 16.3408228,11.7203823 L16.3408228,11.7203823 Z" id="500px" fill="#000000"></path>
    </g>
</svg>