<?xml version="1.0" encoding="UTF-8"?>
<svg width="20px" height="20px" viewBox="0 0 20 20" version="1.1" xmlns="http://www.w3.org/2000/svg" xmlns:xlink="http://www.w3.org/1999/xlink">
    <!-- Generator: Sketch 47.1 (45422) - http://www.bohemiancoding.com/sketch -->
    <title>aboutme</title>
    <desc>Created with Sketch.</desc>
    <defs></defs>
    <g id="Page-1" stroke="none" stroke-width="1" fill="none" fill-rule="evenodd">
        <g id="Group" transform="translate(-460.000000, 0.000000)"></g>
        <path d="M9.96772104,12.574718 L9.96772104,9.35082941 C9.96772104,8.77670391 9.68760661,8.44662751 9.1039512,8.44662751 C8.5791968,8.44662751 8.22880276,8.787076 7.9955414,9.03204028 L7.9955414,12.574718 L6.47850588,12.574718 L6.47850588,9.35082941 C6.47850588,8.77670391 6.20977005,8.44662751 5.62611465,8.44662751 C5.10136025,8.44662751 4.73958761,8.787076 4.51770485,9.03204028 L4.51770485,12.574718 L3,12.574718 L3,7.43626426 L4.51770485,7.43626426 L4.51770485,8.03204911 C4.77472741,7.75535845 5.35838281,7.28739431 6.26800173,7.28739431 C7.07320523,7.28739431 7.62205549,7.59611641 7.86736478,8.22332259 C8.20537623,7.77671274 8.8358847,7.28739431 9.74650761,7.28739431 C10.8432041,7.28739431 11.4850912,7.8828741 11.4850912,9.03234534 L11.4850912,12.575023 L9.96772104,12.575023 L9.96772104,12.574718 Z M14.1580589,10.4469149 C14.3099968,11.1272018 14.9284573,11.6064532 15.7922271,11.6064532 C16.2594192,11.6064532 16.9357767,11.4475162 17.3330239,11.0744261 L18.0910396,11.8724667 C17.4022995,12.5320094 16.3758825,12.7129108 15.6754291,12.7129108 C13.971316,12.7129108 12.6406888,11.595776 12.6406888,9.99969494 C12.6406888,8.51038534 13.8658966,7.28708925 15.5937709,7.28708925 C17.2627443,7.28708925 18.5,8.45730466 18.5,9.99969494 L18.5,10.4469149 L14.1580589,10.4469149 L14.1580589,10.4469149 Z M15.6175321,8.3188068 C14.7300011,8.3188068 14.2400518,8.91489671 14.1349671,9.56376224 L17.1111411,9.56376224 C17.0291482,8.94662309 16.5512469,8.3188068 15.6175321,8.3188068 L15.6175321,8.3188068 Z" id="About.me" fill="#000000"></path>
    </g>
</svg>