<?xml version="1.0" encoding="UTF-8"?>
<svg width="20px" height="20px" viewBox="0 0 20 20" version="1.1" xmlns="http://www.w3.org/2000/svg" xmlns:xlink="http://www.w3.org/1999/xlink">
    <!-- Generator: Sketch 47.1 (45422) - http://www.bohemiancoding.com/sketch -->
    <title>artstation</title>
    <desc>Created with Sketch.</desc>
    <defs></defs>
    <g id="Page-1" stroke="none" stroke-width="1" fill="none" fill-rule="evenodd">
        <g id="Group" transform="translate(-660.000000, 0.000000)"></g>
        <path d="M7.01503774,5.76315957 L4.07274528,10.6258617 L9.95733019,10.6258617 L7.01503774,5.76315957 Z M15.7633019,11.7337021 L11.5015094,4.66468085 C11.2813679,4.26926596 10.8456226,4 10.3437736,4 L8.09146226,4 L14.6743679,14.8830957 L15.7120377,13.1681489 C15.9167264,12.8396702 15.9727736,12.6943298 15.9727736,12.4114894 C15.9727736,12.1616489 15.8956321,11.9290106 15.7633019,11.7337021 L15.7633019,11.7337021 Z M3,12.398617 L4.09580189,14.2060106 L4.09616981,14.2062447 C4.31189623,14.6140638 4.75463208,14.8937447 5.26604717,14.8937447 L5.2670283,14.8937447 L5.26715094,14.8937447 L12.5397925,14.8937447 L11.0306887,12.398617 L3,12.398617 Z" id="Artstation" fill="#000000"></path>
    </g>
</svg>