<?xml version="1.0" encoding="UTF-8"?>
<svg width="20px" height="20px" viewBox="0 0 20 20" version="1.1" xmlns="http://www.w3.org/2000/svg" xmlns:xlink="http://www.w3.org/1999/xlink">
    <!-- Generator: Sketch 47.1 (45422) - http://www.bohemiancoding.com/sketch -->
    <title>behance</title>
    <desc>Created with Sketch.</desc>
    <defs></defs>
    <g id="Page-1" stroke="none" stroke-width="1" fill="none" fill-rule="evenodd">
        <g id="Group" transform="translate(-520.000000, 0.000000)"></g>
        <path d="M9.92436619,5.99360207 C10.2106097,6.38960809 10.3519379,6.86524576 10.3519379,7.41692807 C10.3519379,7.98726283 10.2084575,8.44424804 9.92006178,8.79003591 C9.76008108,8.98516931 9.52333835,9.16165026 9.20983358,9.32091355 C9.68475385,9.49524229 10.0448898,9.76857253 10.2859369,10.1452087 C10.5284189,10.5204101 10.6489424,10.9759605 10.6489424,11.5111425 C10.6489424,12.064977 10.512636,12.560702 10.2342839,12.9990347 C10.0585204,13.2895826 9.83827792,13.5349342 9.57427391,13.7322198 C9.27726939,13.9603537 8.9257423,14.11603 8.52041005,14.199966 C8.1157952,14.2839021 7.67674505,14.3262288 7.20325958,14.3262288 L3,14.3262288 L3,5 L7.50743812,5 C8.64380323,5.01793506 9.44944592,5.34722267 9.92436619,5.99360207 C9.92436619,5.99360207 9.44944592,5.34722267 9.92436619,5.99360207 L9.92436619,5.99360207 L9.92436619,5.99360207 Z M5.15220665,6.6198942 L5.15220665,8.67668636 L7.12793235,8.67668636 C7.5325472,8.67668636 7.86111742,8.59992432 8.1143604,8.44568284 C8.36616858,8.29144137 8.49243137,8.01811112 8.49243137,7.62569211 C8.49243137,7.19166377 8.32599405,6.90398548 7.99096722,6.76552685 C7.70400633,6.66867755 7.33597899,6.6198942 6.88975482,6.6198942 L5.15220665,6.6198942 L5.15220665,6.6198942 L5.15220665,6.6198942 L5.15220665,6.6198942 Z M5.15220665,10.2205359 L7.15591104,10.2205359 C7.55622147,10.2248403 7.86757404,10.2764933 8.08925132,10.3790818 C8.48382254,10.5584324 8.68326036,10.8934592 8.68326036,11.3784231 C8.68326036,11.9523449 8.47808332,12.3390247 8.06916406,12.5427669 C7.84389976,12.6532468 7.52967759,12.7063346 7.12506274,12.7063346 L5.15220665,12.7063346 L5.15220665,10.2205359 Z M16.2540059,7.49010309 C16.7196,7.69886714 17.1041276,8.02815475 17.4083061,8.47940075 C17.6823538,8.87684158 17.8588347,9.3366964 17.9406186,9.86040001 C17.9872497,10.1660134 18.0066196,10.6086505 17.9980107,11.1875941 L13.1311541,11.1875941 C13.157698,11.8583652 13.3901363,12.3282636 13.8299039,12.5972895 C14.0946253,12.7651616 14.4167389,12.8483802 14.7926576,12.8483802 C15.1900985,12.8483802 15.5143643,12.7472265 15.7633028,12.5413321 C15.8988918,12.4315696 16.018698,12.2773281 16.1227213,12.0829121 L17.9061832,12.0829121 C17.8602695,12.4796355 17.6450488,12.8813807 17.2590864,13.2910174 C16.660773,13.939549 15.8221298,14.265967 14.7445917,14.265967 C13.8542955,14.265967 13.0701749,13.991202 12.3900776,13.4438241 C11.7106977,12.894294 11.3699317,12.0032804 11.3699317,10.7671964 C11.3699317,9.60859184 11.6769798,8.72116529 12.2903587,8.10348199 C12.9058898,7.48579868 13.7014889,7.17731573 14.6814603,7.17731573 C15.2632735,7.17731573 15.7869771,7.28133905 16.2540059,7.49010309 C16.2540059,7.49010309 15.7869771,7.28133905 16.2540059,7.49010309 Z M13.6390749,9.00023476 C13.8851438,8.74699177 14.2323665,8.61785938 14.6814603,8.61785938 C15.094684,8.61785938 15.4404718,8.73838295 15.7181065,8.97943009 C15.9964585,9.21904243 16.1521348,9.57056952 16.1844179,10.0347288 L13.1734808,10.0347288 C13.2366122,9.5985482 13.3908537,9.25419514 13.6390749,9.00023476 Z M12.7882358,5.38667979 L16.546706,5.38667979 L16.546706,6.32002008 L12.7882358,6.32002008 L12.7882358,5.38667979 Z" id="Behance" fill="#000000"></path>
    </g>
</svg>