<?xml version="1.0" encoding="UTF-8"?>
<svg width="20px" height="20px" viewBox="0 0 20 20" version="1.1" xmlns="http://www.w3.org/2000/svg" xmlns:xlink="http://www.w3.org/1999/xlink">
    <!-- Generator: Sketch 47.1 (45422) - http://www.bohemiancoding.com/sketch -->
    <title>blogger</title>
    <desc>Created with Sketch.</desc>
    <defs></defs>
    <g id="Page-1" stroke="none" stroke-width="1" fill="none" fill-rule="evenodd">
        <g id="Group" transform="translate(-400.000000, 0.000000)"></g>
        <path d="M14.9708908,9.16913425 L14.8865747,8.9944793 L14.7455458,8.88356336 C14.5613551,8.73952321 13.6288582,8.893601 13.3779172,8.66474279 C13.1997491,8.50112923 13.1721455,8.20602258 13.1179423,7.80702635 C13.0180678,7.03161857 12.9543287,6.99146801 12.833877,6.72998745 C12.3947302,5.79799247 11.2037641,5.09686324 10.3851945,5 L8.16888331,5 C6.42484316,5 5,6.42835634 5,8.1718946 L5,11.8712673 C5,13.6122961 6.42534504,15.0376412 8.16888331,15.0376412 L11.8105395,15.0376412 C13.5545797,15.0376412 14.9708908,13.6122961 14.9804266,11.8712673 L15,9.30915935 L14.9708908,9.16913425 L14.9708908,9.16913425 Z M8.20953576,7.59171895 L9.96712673,7.59171895 C10.3023839,7.59171895 10.5739021,7.8642409 10.5739021,8.19648683 C10.5739021,8.52772898 10.3023839,8.80326223 9.96712673,8.80326223 L8.20953576,8.80326223 C7.87427854,8.80326223 7.60276035,8.52772898 7.60276035,8.19648683 C7.60276035,7.8642409 7.87427854,7.59171895 8.20953576,7.59171895 L8.20953576,7.59171895 Z M11.7804266,12.4283563 L8.20953576,12.4283563 C7.87427854,12.4283563 7.60276035,12.1528231 7.60276035,11.8245922 C7.60276035,11.4923463 7.87427854,11.2218319 8.20953576,11.2218319 L11.7804266,11.2218319 C12.1136763,11.2218319 12.3841907,11.4923463 12.3841907,11.8245922 C12.3841907,12.1528231 12.1136763,12.4283563 11.7804266,12.4283563 L11.7804266,12.4283563 Z" id="Blogger" fill="#000000"></path>
    </g>
</svg>