<?xml version="1.0" encoding="UTF-8"?>
<svg width="20px" height="20px" viewBox="0 0 20 20" version="1.1" xmlns="http://www.w3.org/2000/svg" xmlns:xlink="http://www.w3.org/1999/xlink">
    <!-- Generator: Sketch 47.1 (45422) - http://www.bohemiancoding.com/sketch -->
    <title>dribbble</title>
    <desc>Created with Sketch.</desc>
    <defs></defs>
    <g id="Page-1" stroke="none" stroke-width="1" fill="none" fill-rule="evenodd">
        <g id="Group"></g>
        <path d="M10,3 C6.13400664,3 3,6.13400664 3,10 C3,13.8659934 6.13400664,17 10,17 C13.8659934,17 17,13.8659934 17,10 C17,6.13400664 13.8659934,3 10,3 L10,3 Z M10.3097888,4 C11.725983,4 13.0184544,4.62028914 14,5.64155821 C13.2788653,6.75577563 12.182893,7.49752454 11.0852879,8 C10.4867639,6.71785755 9.75002069,5.36609158 9,4.181751 C9.41997716,4.06294995 9.85865049,4 10.3097888,4 L10.3097888,4 Z M7.5891561,5 C8.43387041,6.11035198 9.25165847,7.14055181 10,8.30662289 C8.10905656,8.73724654 5.97314576,8.9955484 4,9 C4.41602218,7.22520759 5.77157472,5.75229377 7.5891561,5 L7.5891561,5 Z M14.5649536,6 C15.4540407,7.09143026 15.9902536,8.48301713 16,10 C14.5256738,9.70873913 13.0592857,9.63191922 11.5659937,9.78269698 C11.3977829,9.362886 11.1948263,8.96423964 11,8.53426545 C12.2872778,8.01356994 13.6631032,7.12234046 14.5649536,6 L14.5649536,6 Z M10.4872801,9 C10.6454767,9.31737894 10.8284485,9.65354713 11,9.99735345 C8.94440053,10.8528175 6.75825688,11.9962835 5.62275489,14 C4.61404318,12.944189 4,11.5459323 4,10.0123522 C4,9.95411235 4.00104371,9.89595143 4.00280532,9.83811432 C6.20460459,9.8280299 8.36520046,9.56795473 10.4872801,9.00000272 L10.4872801,9 Z M16.0227,10 C16.01566,10.033362 16.00803,10.0667513 16,10.1 C16.00806,10.0667786 16.01561,10.0333307 16.0227,10 L16.0227,10 Z M13.2391572,11.0000407 C14.1699791,10.9975509 15.1309416,11.1092795 16,11.3055043 C15.7157637,12.8417587 14.6909966,14.1660202 13.2500589,15 C12.9062961,13.657272 12.5787923,12.372589 12,11.0770172 C12.3991777,11.0258888 12.816056,11.0011713 13.2391572,11.0000407 L13.2391572,11.0000407 Z M16.04701,11 C16.03208,11.0338844 16.01699,11.0677988 16,11.1015082 C16.01707,11.0677168 16.03199,11.0339691 16.04701,11 L16.04701,11 Z M10.7270853,11 C11.2781186,12.4213129 11.7106006,13.9954401 12,15.5274507 C11.2829468,15.8317651 10.4942786,16 9.66610063,16 C8.28423369,16 7.01215691,15.5311074 6,14.7441433 C7.08200873,12.9898156 8.75790404,11.6629292 10.7270826,11 L10.7270853,11 Z" id="Dribbble" fill="#000000"></path>
    </g>
</svg>