<?xml version="1.0" encoding="UTF-8"?>
<svg width="20px" height="20px" viewBox="0 0 20 20" version="1.1" xmlns="http://www.w3.org/2000/svg" xmlns:xlink="http://www.w3.org/1999/xlink">
    <!-- Generator: Sketch 47.1 (45422) - http://www.bohemiancoding.com/sketch -->
    <title>etsy</title>
    <desc>Created with Sketch.</desc>
    <defs></defs>
    <g id="Page-1" stroke="none" stroke-width="1" fill="none" fill-rule="evenodd">
        <g id="Group" transform="translate(-640.000000, 0.000000)"></g>
        <path d="M7.70670827,5.28705148 C7.70670827,5.11544462 7.72386895,5.0124805 8.01560062,5.0124805 L11.9453978,5.0124805 C12.6318253,5.0124805 13.0093604,5.59594384 13.2839314,6.69422777 L13.5070203,7.56942278 L14.1762871,7.56942278 C14.2964119,5.08112324 14.399376,4 14.399376,4 C14.399376,4 12.7176287,4.18876755 11.7223089,4.18876755 L6.69422777,4.18876755 L4,4.10296412 L4,4.82371295 L4.90951638,4.99531981 C5.54446178,5.11544462 5.69890796,5.25273011 5.75039002,5.83619345 C5.75039002,5.83619345 5.80187207,7.55226209 5.80187207,10.3837754 C5.80187207,13.2152886 5.75039002,14.9141966 5.75039002,14.9141966 C5.75039002,15.4290172 5.54446178,15.6177847 4.90951638,15.7379095 L4,15.9095164 L4,16.6302652 L6.69422777,16.5444618 L11.1903276,16.5444618 C12.2028081,16.5444618 14.5538222,16.6302652 14.5538222,16.6302652 C14.6053042,16.0124805 14.9485179,13.2152886 15,12.9063963 L14.3650546,12.9063963 L13.6957878,14.4336973 C13.1638066,15.6349454 12.3915757,15.7207488 11.5335413,15.7207488 L8.97659906,15.7207488 C8.11856474,15.7207488 7.70670827,15.3775351 7.70670827,14.6396256 L7.70670827,10.7269891 C7.70670827,10.7269891 9.61154446,10.7269891 10.2293292,10.7784711 C10.7098284,10.8127925 11.0015601,10.950078 11.1560062,11.6193448 L11.3619345,12.5117005 L12.099844,12.5117005 L12.0483619,10.2636505 L12.1513261,7.99843994 L11.4134165,7.99843994 L11.1731669,8.99375975 C11.0187207,9.64586583 10.9157566,9.76599064 10.2464899,9.83463339 C9.37129485,9.92043682 7.70670827,9.90327613 7.70670827,9.90327613 L7.70670827,5.28705148 Z" id="Etsy" fill="#000000"></path>
    </g>
</svg>