<?xml version="1.0" encoding="UTF-8"?>
<svg width="20px" height="20px" viewBox="0 0 20 20" version="1.1" xmlns="http://www.w3.org/2000/svg" xmlns:xlink="http://www.w3.org/1999/xlink">
    <!-- Generator: Sketch 47.1 (45422) - http://www.bohemiancoding.com/sketch -->
    <title>fullscreen</title>
    <desc>Created with Sketch.</desc>
    <defs></defs>
    <g id="Page-1" stroke="none" stroke-width="1" fill="none" fill-rule="evenodd">
        <g id="Group" transform="translate(-580.000000, 0.000000)"></g>
        <path d="M5,4 L8,4 L8,5 L5,5 L5,4 Z M4,15 L8,15 L8,16 L4,16 L4,15 Z M12,4 L16,4 L16,5 L12,5 L12,4 Z M12,15 L15,15 L15,16 L12,16 L12,15 Z M4,4 L5,4 L5,8 L4,8 L4,4 Z M4,12 L5,12 L5,15 L4,15 L4,12 Z M15,5 L16,5 L16,8 L15,8 L15,5 Z M15,12 L16,12 L16,16 L15,16 L15,12 Z" id="Full-screen" fill="#000000"></path>
    </g>
</svg>