<?xml version="1.0" encoding="UTF-8"?>
<svg width="20px" height="20px" viewBox="0 0 20 20" version="1.1" xmlns="http://www.w3.org/2000/svg" xmlns:xlink="http://www.w3.org/1999/xlink">
    <!-- Generator: Sketch 47.1 (45422) - http://www.bohemiancoding.com/sketch -->
    <title>googleplus</title>
    <desc>Created with Sketch.</desc>
    <defs></defs>
    <g id="Page-1" stroke="none" stroke-width="1" fill="none" fill-rule="evenodd">
        <g id="Group" transform="translate(-60.000000, 0.000000)"></g>
        <path d="M17.0641596,9.7953346 L17.0641596,7.85949422 L15.8292952,7.85949422 L15.8292952,9.7953346 L13.8934549,9.7953346 L13.8934549,11.030199 L15.8292952,11.030199 L15.8292952,12.9660394 L17.0641596,12.9660394 L17.0641596,11.030199 L19,11.030199 L19,9.7953346 L17.0641596,9.7953346 Z M7.57120896,9.73974432 L7.57675215,11.0829385 L10.7384294,11.0829385 C10.3645017,12.7183379 9.21040947,13.7210218 7.66148377,13.7210218 C5.6298254,13.7210218 3.98270604,12.0740609 3.98270604,10.0424025 C3.98270604,8.01058575 5.6298254,6.36362477 7.66148377,6.36362477 C8.62742425,6.36362477 9.50609907,6.73660228 10.1624128,7.34540293 L11.1999396,6.4510488 C10.2897478,5.55416064 9.0404711,5 7.66148377,5 C4.87658505,5 2.61908127,7.25750378 2.61908127,10.0424025 C2.61908127,12.8271428 4.87658505,15.0846466 7.66148377,15.0846466 C10.3358354,15.0846466 12.2681915,13.0450694 12.2681915,10.2601707 L12.2604311,9.73974432 L7.57120896,9.73974432 Z" id="Google" fill="#000000"></path>
    </g>
</svg>