<?xml version="1.0" encoding="UTF-8"?>
<svg width="20px" height="20px" viewBox="0 0 20 20" version="1.1" xmlns="http://www.w3.org/2000/svg" xmlns:xlink="http://www.w3.org/1999/xlink">
    <!-- Generator: Sketch 47.1 (45422) - http://www.bohemiancoding.com/sketch -->
    <title>lastfm</title>
    <desc>Created with Sketch.</desc>
    <defs></defs>
    <g id="Page-1" stroke="none" stroke-width="1" fill="none" fill-rule="evenodd">
        <g id="Group" transform="translate(-360.000000, 0.000000)"></g>
        <path d="M7.28442099,6.00040908 C7.9589806,5.99488703 8.28253454,6.04383065 8.83448862,6.23523784 C9.74515235,6.55103263 10.5207291,7.20371427 11.05348,8.10307193 C11.8824987,9.68449325 12.6000042,11.5537751 13.1830707,12.784501 C13.963773,13.8603714 15.5583928,13.810404 16.1466195,13.1584187 C17.4989857,11.6594663 15.4452734,10.8244465 14.7234419,10.5827444 C13.9151258,10.330081 12.9665385,9.89358343 12.6067775,9.15009463 C11.9473329,7.27195752 13.1595002,6.04102826 14.7234419,6.08336058 C15.2086522,6.01362479 16.1310184,6.29500842 16.7356147,7.27257108 L15.9481942,7.69913448 C15.6143993,7.34577798 15.1385441,7.0525988 14.6814267,7.04851758 C13.6634655,6.90515091 13.1063996,8.2035582 13.7216574,8.92496911 C13.9292309,9.13869547 14.1828905,9.25635114 15.1413845,9.58097364 C16.5107512,10.0411347 17.5090785,10.4951464 17.5844328,11.9066076 C17.6774185,13.8120379 15.7847144,14.9543799 13.8670784,14.5123085 C13.0948039,14.3026461 12.4567409,13.7538564 12.050949,12.9514725 C11.3375661,11.5606311 10.8382508,9.85065478 10.103407,8.62335863 C9.48666355,7.6432969 8.50325826,7.10518933 7.32966256,7.10668532 C5.89125631,7.08732709 4.63193085,8.22386089 4.22415003,9.36984285 C3.92028867,10.5906587 4.21821778,11.8292161 5.06865939,12.666018 C7.06403507,14.434817 9.26550551,13.2764914 10.1411066,12.0304816 C10.178103,12.0304816 10.6366095,13.0163205 10.6366095,13.0958147 C10.040834,13.8128548 8.92229691,14.4334761 8.10092366,14.5866322 C7.66279221,14.6630345 6.95860239,14.6641375 6.5433175,14.58879 C4.93645059,14.297224 3.59669681,13.0549646 3.14481192,11.4380325 C2.47410604,8.73813262 4.23845843,6.58365482 6.26971715,6.11244962 C6.60958563,6.02271792 6.77666405,6.00457992 7.28442099,6.00042287 L7.28442099,6.00040908 Z" id="Last.fm" fill="#000000"></path>
    </g>
</svg>