<?xml version="1.0" encoding="UTF-8"?>
<svg width="20px" height="20px" viewBox="0 0 20 20" version="1.1" xmlns="http://www.w3.org/2000/svg" xmlns:xlink="http://www.w3.org/1999/xlink">
    <!-- Generator: Sketch 47.1 (45422) - http://www.bohemiancoding.com/sketch -->
    <title>linkedin</title>
    <desc>Created with Sketch.</desc>
    <defs></defs>
    <g id="Page-1" stroke="none" stroke-width="1" fill="none" fill-rule="evenodd">
        <g id="Group" transform="translate(-100.000000, 0.000000)"></g>
        <path d="M6.28397367,4 C6.90857855,4.00762967 7.52384795,4.47477275 7.55062236,5.28344141 C7.56397107,6.002524 6.98593267,6.5502578 6.26760965,6.56687613 L6.25028775,6.56687613 C5.63189215,6.55913961 5.02798177,6.08027656 5,5.28344141 C5.00881495,4.57235244 5.56018058,4.01686876 6.28397367,4 Z M12.9820027,7.37241613 C13.6687065,7.37703066 14.3168025,7.59788051 14.8492508,8.18630368 C15.4025999,8.85532092 15.5802203,9.77778692 15.6,10.7156158 L15.6,14.9812213 L13.3323523,14.9812213 L13.3323523,11.005697 C13.3273165,10.26058 13.0918816,9.35485588 12.1821645,9.32470448 C11.6490078,9.33084161 11.2730572,9.66671422 11.0156157,10.2283284 C10.9453517,10.4090732 10.9352155,10.6168774 10.9318798,10.8241341 L10.9318798,14.9812213 L8.66519621,14.9812213 C8.67386948,12.9029882 8.68578907,10.8249021 8.68155715,8.74663563 C8.68155715,8.15628918 8.67631192,7.75878483 8.66519621,7.553979 L10.9318798,7.553979 L10.9318798,8.60159836 C11.1242718,8.30493259 11.3376663,8.02359295 11.6239151,7.79710015 C12.0121579,7.4967147 12.4785464,7.38156506 12.9820027,7.37241613 Z M5.12319987,7.57275768 L7.38988349,7.57275768 L7.38988349,15 L5.12319987,15 L5.12319987,7.57275768 Z" id="LinkedIn" fill="#000000"></path>
    </g>
</svg>