<?xml version="1.0" encoding="UTF-8"?>
<svg width="20px" height="20px" viewBox="0 0 20 20" version="1.1" xmlns="http://www.w3.org/2000/svg" xmlns:xlink="http://www.w3.org/1999/xlink">
    <!-- Generator: Sketch 47.1 (45422) - http://www.bohemiancoding.com/sketch -->
    <title>myspace</title>
    <desc>Created with Sketch.</desc>
    <defs></defs>
    <g id="Page-1" stroke="none" stroke-width="1" fill="none" fill-rule="evenodd">
        <g id="Group" transform="translate(-120.000000, 0.000000)"></g>
        <path d="M6.99988004,12.3716727 L6.99151015,13 L4,13 L4,12.3716727 C4,11.6100519 4.69112686,11 5.51183721,11 C6.33254968,11 7.01045343,11.610115 6.99987792,12.3716727 L6.99988004,12.3716727 Z M7,9.50000117 C7,10.3284274 6.33126376,11 5.50283756,11 C4.67440903,11 4,10.3284274 4,9.50000117 C4,8.67157263 4.67441137,8 5.50283756,8 C6.3312661,8 7,8.67157263 7,9.50000117 L7,9.50000117 Z M11.9886786,13 L8,13 L8,12.0575077 C8,10.9150765 8.92150179,10 10.0157832,10 C11.1100646,10 12.013939,10.9151714 11.9998372,12.0575077 L11.9886786,13 Z M11,8.5 C11,9.32842706 10.3312641,10 9.50283702,10 C8.67440997,10 8,9.32842706 8,8.5 C8,7.67157294 8.67440997,7 9.50283702,7 C10.3312641,7 11,7.67157294 11,8.5 L11,8.5 Z M15.9998394,12.0575081 L15.9886795,13 L12,13 L12,12.0575081 C12,10.9150762 12.9215013,10 14.0157834,10 C15.1100655,10 16.0139378,10.9151736 15.9998372,12.0575081 L15.9998394,12.0575081 Z M16,8 C16,9.10456962 15.1083524,10 14.0037821,10 C12.8992119,10 12,9.10456962 12,8 C12,6.89543038 12.8992143,6 14.0037821,6 C15.1083524,6 16,6.89543038 16,8 L16,8 Z" id="Myspace" fill="#000000"></path>
    </g>
</svg>