<?xml version="1.0" encoding="UTF-8"?>
<svg width="20px" height="20px" viewBox="0 0 20 20" version="1.1" xmlns="http://www.w3.org/2000/svg" xmlns:xlink="http://www.w3.org/1999/xlink">
    <!-- Generator: Sketch 47.1 (45422) - http://www.bohemiancoding.com/sketch -->
    <title>path</title>
    <desc>Created with Sketch.</desc>
    <defs></defs>
    <g id="Page-1" stroke="none" stroke-width="1" fill="none" fill-rule="evenodd">
        <g id="Group" transform="translate(-140.000000, 0.000000)"></g>
        <path d="M14.9999972,10.637928 C14.9843593,9.48870766 14.482852,8.44644332 13.670974,7.77873273 C12.6152708,6.97521106 11.2896404,6.70748868 10.1005718,6.68677939 L10.1005718,6.04022679 C10.0687199,5.21022094 9.58358169,4.48985773 8.89367714,4.1724131 C8.64000558,4.0519962 8.35984984,4.00101095 8.10344732,4 C7.74189465,4.00437618 7.39017177,4.11370861 7.09770179,4.25862104 L7.09770179,6.1264375 C7.34440747,5.95260629 7.62710583,5.83562386 7.9094829,5.91810373 C8.15925468,6.01080115 8.27359203,6.20613933 8.27586322,6.44252773 L8.27586322,11.6293096 L10.1005746,11.6293096 L10.1005746,8.39655212 C10.5198457,8.40235748 10.9334361,8.44836552 11.3146539,8.53304733 C11.8144052,8.65434778 12.29037,8.84573909 12.6508618,9.16523055 C13.0932409,9.58667865 13.286463,10.0885127 13.2902298,10.6379308 C13.2833775,11.4514678 12.8740054,12.1279834 12.2485636,12.5201138 C11.5396642,12.925708 10.753589,13.0630092 10,13.0660919 C9.18738242,13.048288 8.38757487,12.8884883 7.73706978,12.4841959 C7.07269663,12.0541007 6.71576388,11.342933 6.70977018,10.6379308 C6.75196429,10.1298704 6.88205867,9.42249442 7.22701232,9.10057391 L6.0632175,7.85057407 C5.68558653,8.22825761 5.43673708,8.69065344 5.27298768,9.15804587 C5.1122656,9.6524238 5.00203852,10.1445832 5,10.6379308 C5.01986176,11.8377126 5.55302433,12.920764 6.39367714,13.6264366 C7.45440465,14.4556807 8.78620318,14.7695247 10,14.7758619 C11.3289679,14.7532719 12.6424003,14.4185968 13.6206895,13.6336212 C14.5380667,12.8538085 14.9918708,11.7251119 15,10.6379308 L14.9999972,10.637928 Z" id="Path" fill="#000000" transform="translate(10.000000, 9.387931) scale(1, -1) translate(-10.000000, -9.387931) "></path>
    </g>
</svg>