<?xml version="1.0" encoding="UTF-8"?>
<svg width="20px" height="20px" viewBox="0 0 20 20" version="1.1" xmlns="http://www.w3.org/2000/svg" xmlns:xlink="http://www.w3.org/1999/xlink">
    <!-- Generator: Sketch 47.1 (45422) - http://www.bohemiancoding.com/sketch -->
    <title>pinterest</title>
    <desc>Created with Sketch.</desc>
    <defs></defs>
    <g id="Page-1" stroke="none" stroke-width="1" fill="none" fill-rule="evenodd">
        <g id="Group" transform="translate(-160.000000, 0.000000)"></g>
        <path d="M10.5000013,3.00000254 C14.3615896,3.072216 16.9747897,6.03361034 17,9.50000127 C16.9309324,13.193331 13.9663922,15.9747897 10.5000013,16 C9.8587637,15.9975143 9.2327021,15.8977113 8.66090788,15.7332614 C8.78258227,15.5367177 8.90424396,15.319115 9.02591835,15.0804533 C9.28251596,14.5588132 9.39969621,14.0001535 9.53131865,13.4659831 C9.58747508,13.236683 9.66703151,12.9348469 9.76998032,12.5604749 C9.88229065,12.7757366 10.0858549,12.9629238 10.3806704,13.1220291 C11.150222,13.4964468 12.1035941,13.3727462 12.7883385,13.0237572 C13.7490002,12.478095 14.3119306,11.6305663 14.6133934,10.6792661 C15.1938687,8.4731462 14.4453862,6.3520138 12.444387,5.49892197 C10.0316383,4.77217387 7.33897825,5.67918268 6.40065266,7.83639515 C5.990975,9.27802377 6.01522558,11.128934 7.43953019,11.7321821 C7.51444267,11.760259 7.58229149,11.760259 7.64309441,11.7321821 C7.77677602,11.6558071 7.93181369,10.993833 7.90281252,10.8547533 C7.89344846,10.8126379 7.8606971,10.7541379 7.80454066,10.6792661 C7.01736543,9.61360652 7.49710342,8.027683 8.23272554,7.232723 C9.48361729,6.15828845 11.4304685,5.98382188 12.5777563,7.0080998 C13.5953718,8.19525348 13.3642536,10.0428299 12.7111256,11.2197613 C12.3502411,11.795293 11.8661207,12.2302216 11.2159863,12.2375798 C10.5316405,12.2224267 10.0154797,11.6433352 10.1911472,10.9881201 C10.3404365,10.2191804 10.7546362,9.40369973 10.7667399,8.6857444 C10.7336686,8.0885824 10.4346306,7.70984322 9.88229065,7.7030233 C9.00058867,7.81420121 8.6446528,8.63855847 8.63283093,9.3876884 C8.6610069,9.74768931 8.68285299,10.1140886 8.84341312,10.4125275 C8.65623347,11.1706279 8.511154,11.781318 8.40820773,12.2446003 C8.25038726,13.0665709 7.94094669,13.9262567 7.89578947,14.7224608 C7.881751,14.9845199 7.87940745,15.2278611 7.88876897,15.4524817 C5.48024014,14.3102923 4.01423652,12.079216 4,9.49999873 C4.07015682,5.74848892 7.03360781,3.02521035 10.4999987,3 L10.5000013,3.00000254 Z" id="Pinterest" fill="#000000"></path>
    </g>
</svg>