<?xml version="1.0" encoding="UTF-8"?>
<svg width="20px" height="20px" viewBox="0 0 20 20" version="1.1" xmlns="http://www.w3.org/2000/svg" xmlns:xlink="http://www.w3.org/1999/xlink">
    <!-- Generator: Sketch 47.1 (45422) - http://www.bohemiancoding.com/sketch -->
    <title>skype</title>
    <desc>Created with Sketch.</desc>
    <defs></defs>
    <g id="Page-1" stroke="none" stroke-width="1" fill="none" fill-rule="evenodd">
        <g id="Group" transform="translate(-180.000000, 0.000000)"></g>
        <path d="M13.8456551,11.4937378 C13.8516547,10.5584129 13.3224329,9.93655983 12.6000741,9.58724501 C12.2443442,9.42818409 11.8799062,9.29828175 11.5324341,9.20851379 C11.0613148,9.08385443 10.6209236,9.00101928 10.1518654,8.86187788 C9.7717251,8.76786539 9.30629171,8.46277947 9.29284313,8.10441544 C9.37925413,7.46866627 10.1193854,7.32478581 10.569103,7.32127722 C11.2415254,7.29443191 11.6629098,7.64730688 11.9558079,8.1686084 C12.1703131,8.54464197 12.3443651,8.76817242 12.7411979,8.77201148 C13.1731364,8.74657008 13.5086386,8.38947401 13.5143177,7.9760342 C13.4539862,7.04490692 12.659691,6.50807103 11.9312653,6.25569605 C10.9905367,6.00697028 9.95763723,5.99956872 9.08422321,6.34556479 C8.25341092,6.66660695 7.68226401,7.3882733 7.67297345,8.24564043 C7.71466338,9.82116765 9.22871425,10.2741067 10.3604831,10.5308645 C10.7051839,10.6027332 11.0374891,10.6778574 11.354493,10.7876316 C11.7784672,10.9486848 12.1340335,11.1918793 12.139883,11.6606386 C12.139883,11.9430816 12.0048931,12.1784479 11.7349156,12.3667471 C11.1572651,12.6641268 10.4440041,12.8242635 9.86961321,12.5079698 C9.45956028,12.3030089 9.26067899,11.9570034 9.09649338,11.5707699 C8.92482962,11.1712121 8.71341828,10.9205809 8.31110338,10.9160152 C7.8893202,10.9324637 7.51941587,11.2491418 7.51344096,11.6606386 C7.58026493,12.4839182 8.13039325,13.1623869 8.75288582,13.5093603 C9.93173925,14.0158189 11.2324319,14.1139845 12.3730455,13.6249049 C13.2595676,13.2268447 13.8364228,12.4176721 13.8456529,11.4937402 L13.8456551,11.4937378 Z M15.980935,11.2626511 C16.1936413,11.7248316 16.3,12.2126878 16.3,12.7262221 C16.2812688,13.6224322 15.9416938,14.4533431 15.3857563,15.0435438 C14.7464637,15.6695102 13.9774907,15.9939086 13.1707102,16 C12.6379958,15.9906063 12.1371095,15.8593469 11.6981028,15.6148492 C10.6727733,15.8011797 9.47906666,15.6473289 8.60562575,15.2617938 C7.2803367,14.6356142 6.26416787,13.5279111 5.72790483,12.2512026 C5.31611119,11.1011246 5.20267981,10.0206419 5.41497608,8.91323413 C4.71170464,7.58403501 4.92132374,5.97845154 5.89970974,4.93976724 C6.98369051,3.8553306 8.54998765,3.71770092 9.783713,4.48400634 C11.5369282,4.18782198 13.3346001,4.84020475 14.5206023,6.06312184 C15.5428245,7.1787491 16.0938467,8.64078493 16.1036547,10.0558473 C16.101979,10.4736231 16.0589695,10.8833246 15.9809373,11.2626511 L15.980935,11.2626511 Z" id="Skype" fill="#000000"></path>
    </g>
</svg>