<?xml version="1.0" encoding="UTF-8"?>
<svg width="20px" height="20px" viewBox="0 0 20 20" version="1.1" xmlns="http://www.w3.org/2000/svg" xmlns:xlink="http://www.w3.org/1999/xlink">
    <!-- Generator: Sketch 47.1 (45422) - http://www.bohemiancoding.com/sketch -->
    <title>soundcloud</title>
    <desc>Created with Sketch.</desc>
    <defs></defs>
    <g id="Page-1" stroke="none" stroke-width="1" fill="none" fill-rule="evenodd">
        <g id="Group" transform="translate(-200.000000, 0.000000)"></g>
        <path d="M12.3273039,5.00009007 C11.9326977,5.00284656 11.5366367,5.06838789 11.1573472,5.205847 C11.0783423,5.23545434 10.9503084,5.27878767 10.8941657,5.40735295 L10.9114452,12.2083076 C10.9450013,12.2822845 10.9891782,12.3233628 11.0629724,12.3497321 L17.1097418,12.3497321 C18.0980725,12.3670814 18.8682852,11.5217195 18.9929449,10.4920514 C19.099704,9.37718134 18.4184362,8.37876126 17.2229903,8.20557075 C16.8834275,8.15657168 16.4603696,8.20523865 16.1163034,8.34115014 C16.1047726,8.34631108 16.1014847,8.3333257 16.092644,8.25182995 C16.007721,7.5051138 15.6947101,6.84671489 15.1917173,6.22826513 C14.4991745,5.46534217 13.418269,4.9924981 12.3273039,5.00009007 L12.3273039,5.00009007 Z M10.4539379,5.49747352 C10.3385904,5.49747352 10.2281748,7.13976615 10.2098989,10.4245274 C10.4924623,12.9435329 10.4606597,13.0089546 10.7274878,10.4245274 C10.6895944,7.13958017 10.5692853,5.49742703 10.4539412,5.49747352 L10.4539379,5.49747352 Z M9.72314957,5.88851962 C9.60780214,5.89209309 9.49986403,7.40763374 9.48628749,10.4245274 C9.76885082,12.9435329 9.73704825,13.0089546 10.0038763,10.4245274 C9.96128361,7.39334982 9.83849699,5.88494947 9.72314957,5.88851962 L9.72314957,5.88851962 Z M7.60281872,6.35719573 C7.60195856,6.35719573 7.60102202,6.35719573 7.60015854,6.35752784 C7.49163924,6.37393393 7.38969234,7.72501849 7.36223373,10.4245939 C7.64479705,12.9435993 7.61272879,13.0090211 7.87955689,10.4245939 C7.82756553,7.72253765 7.7122812,6.36207771 7.60281872,6.35726215 L7.60281872,6.35719573 Z M8.31473668,6.48433296 C8.20291624,6.48204142 8.09465266,7.79305062 8.06697486,10.4245939 C8.34953818,12.9435993 8.31773561,13.0090211 8.5845637,10.4245939 C8.54197097,7.80226327 8.42656045,6.48663778 8.31473668,6.48433296 L8.31473668,6.48433296 Z M6.9023352,6.53723429 C6.78581544,6.53846308 6.6802851,7.83534445 6.67610719,10.4245939 C6.95867052,12.9435993 6.92660226,13.0090211 7.19343035,10.4245939 C7.14613831,7.83046248 7.01885828,6.53601213 6.9023352,6.53723429 L6.9023352,6.53723429 Z M9.0176147,6.61432962 C9.01672133,6.61430969 9.01584789,6.61432962 9.01495452,6.61466173 C8.90078276,6.63232982 8.79486053,7.92000186 8.78128067,10.4246603 C9.063844,12.9436657 9.03204143,13.0090875 9.29886952,10.4246603 C9.25194611,7.86944521 9.13101597,6.61655474 9.01761138,6.61439604 L9.0176147,6.61432962 Z M6.21274811,6.78373411 C6.11236875,6.782771 6.01721012,7.97687187 5.97110038,10.4246603 C6.2536637,12.9436657 6.22186113,13.0090875 6.48868922,10.4246603 C6.42208183,8.01865094 6.3147083,6.78470054 6.21274811,6.78373411 L6.21274811,6.78373411 Z M5.53725233,7.46055832 C5.44187782,7.45472984 5.34563652,8.43693646 5.2756682,10.4246603 C5.55823153,12.9436657 5.52642896,13.0090875 5.79325705,10.4246603 C5.72716442,8.46024705 5.63262683,7.4663868 5.53725565,7.46055832 L5.53725233,7.46055832 Z M4.16313614,8.44522585 C4.10666466,8.4566769 4.05098027,9.07976619 3.92680544,10.3377313 C4.1939756,12.8289061 4.16392323,12.8936072 4.416215,10.3377313 C4.28054263,9.07268567 4.221401,8.43340948 4.16313614,8.44522585 L4.16313614,8.44522585 Z M3.48179195,8.49679875 C3.42532379,8.50802397 3.36963608,9.11884191 3.24546125,10.3518226 C3.51263141,12.7935102 3.48257904,12.856926 3.73487081,10.3518226 C3.60128739,9.1309771 3.54186015,8.50472615 3.48445213,8.49679875 C3.48355544,8.49679875 3.48268864,8.49646664 3.48179195,8.49679875 L3.48179195,8.49679875 Z M4.83464664,8.52497804 C4.77492383,8.53643241 4.71608774,9.15978406 4.58475933,10.4177491 C4.86732265,12.9089174 4.83552008,12.9736185 5.10234817,10.4177491 C4.96106651,9.17216502 4.89828832,8.53306484 4.8375725,8.52497804 C4.83662268,8.52497804 4.83559647,8.52464593 4.83464664,8.52497804 L4.83464664,8.52497804 Z M2.8193214,8.83042686 C2.7628466,8.8398753 2.70689984,9.35419953 2.58272502,10.3919643 C2.84989518,12.447076 2.81984281,12.5004522 3.07213458,10.3919643 C2.93855116,9.36442179 2.87938961,8.83709557 2.82198158,8.83042686 L2.8193214,8.83042686 L2.8193214,8.83042686 Z M2.19326307,9.39440441 C2.14709687,9.40048197 2.1015185,9.73109455 2,10.3987426 C2.21842018,11.7208841 2.19383098,11.7552239 2.40008606,10.3987426 C2.28916895,9.72732845 2.24089719,9.38813423 2.19326307,9.39440441 L2.19326307,9.39440441 Z" id="Sound-Cloud" fill="#000000"></path>
    </g>
</svg>