<?xml version="1.0" encoding="UTF-8"?>
<svg width="20px" height="20px" viewBox="0 0 20 20" version="1.1" xmlns="http://www.w3.org/2000/svg" xmlns:xlink="http://www.w3.org/1999/xlink">
    <!-- Generator: Sketch 47.1 (45422) - http://www.bohemiancoding.com/sketch -->
    <title>spotify</title>
    <desc>Created with Sketch.</desc>
    <defs></defs>
    <g id="Page-1" stroke="none" stroke-width="1" fill="none" fill-rule="evenodd">
        <g id="Group" transform="translate(-220.000000, 0.000000)"></g>
        <path d="M10,3 C6.13400664,3 3,6.2274344 3,10.2088277 C3,11.9456539 3.59680195,13.5384303 4.59020859,14.7829837 C7.34085586,11.7798143 12.8070984,12.6974333 14.1682129,16 C15.8861879,14.6863488 17,12.5817429 17,10.2088277 C17,6.2274344 13.8659934,3 10,3 L10,3 Z M14.5993048,6.84397603 C15.2657571,7.03606998 15.0069975,8.0263191 14.5044038,7.99946394 C11.7356929,7.22688085 9.6071079,6.82908883 6.40069402,7.26125794 C5.73424452,7.0691615 5.99300133,6.07891487 6.49559498,6.10577003 C9.35396204,5.88755198 11.8390798,5.94985843 14.5993048,6.84397603 L14.5993048,6.84397603 Z M12.6884084,8.84452042 C13.206292,9.03693698 13.0060056,10.0264098 12.6143242,9.99945977 C10.4608825,9.22754964 8.80541085,8.83011558 6.31157717,9.26158332 C5.79312307,9.0695598 5.99479013,8.07981418 6.38566139,8.10664397 C8.60603368,7.88554091 10.5448479,7.95288671 12.6884084,8.84452042 L12.6884084,8.84452042 Z M12.7329702,10.8444962 C13.1766215,11.0366478 13.0052396,12.0263876 12.67001,11.9994608 C10.8241736,11.2265003 9.40489516,10.8291901 7.26702386,11.2614145 C6.82305448,11.068918 6.99499303,10.0794778 7.33081124,10.1064498 C9.23949121,9.88783479 10.8882791,9.94790263 12.7329676,10.8444962 L12.7329702,10.8444962 Z M9.33710312,15.0000024 C8.33053081,15.0000024 7.42471998,15.5028317 7,16.2861414 C7.9155811,16.7417085 8.96153272,17 10.072328,17 C10.7433618,17 11.3907359,16.9059831 12,16.7309106 C11.5089656,15.7767958 10.3857796,15 9.33710312,15 L9.33710312,15.0000024 Z" id="Spotify" fill="#000000"></path>
    </g>
</svg>