<?xml version="1.0" encoding="UTF-8"?>
<svg width="20px" height="20px" viewBox="0 0 20 20" version="1.1" xmlns="http://www.w3.org/2000/svg" xmlns:xlink="http://www.w3.org/1999/xlink">
    <!-- Generator: Sketch 47.1 (45422) - http://www.bohemiancoding.com/sketch -->
    <title>tumblr</title>
    <desc>Created with Sketch.</desc>
    <defs></defs>
    <g id="Page-1" stroke="none" stroke-width="1" fill="none" fill-rule="evenodd">
        <g id="Group" transform="translate(-240.000000, 0.000000)"></g>
        <path d="M11.8747971,13.5111484 C11.590876,13.4320146 11.3109101,13.3420528 11.0888237,13.1667339 C11.0005132,13.0960849 10.9563563,13.0313165 10.9563563,12.9724483 L10.9563563,8.69817289 L13.658688,8.69817289 L13.658688,6.82596831 L10.9563563,6.82596831 L10.9563563,4 L9.40207404,4 C9.286201,5.45085249 8.51752999,6.82596831 7,6.82596831 L7,8.69817289 L8.28934751,8.69817289 L8.28934751,13.3256967 C8.29465378,14.0534188 8.63065853,14.6795777 9.21661908,15.0124463 C9.77119238,15.2995199 10.3555408,15.3725936 10.9386948,15.3745223 C11.5102508,15.3717386 12.118484,15.3831181 12.6607706,15.3480301 C13.1355868,15.3309822 13.5907345,15.2223375 13.994275,15.0212771 L13.994275,13.0254358 L13.994275,13.0077744 L13.994275,13.0254358 C13.7587825,13.1785148 13.4997317,13.308032 13.2171355,13.4140072 C12.7430863,13.5694456 12.3199328,13.6204588 11.8748004,13.5111484 L11.8747971,13.5111484 Z" id="Tumblr" fill="#000000"></path>
    </g>
</svg>