<?xml version="1.0" encoding="UTF-8"?>
<svg width="20px" height="20px" viewBox="0 0 20 20" version="1.1" xmlns="http://www.w3.org/2000/svg" xmlns:xlink="http://www.w3.org/1999/xlink">
    <!-- Generator: Sketch 47.1 (45422) - http://www.bohemiancoding.com/sketch -->
    <title>twitter</title>
    <desc>Created with Sketch.</desc>
    <defs></defs>
    <g id="Page-1" stroke="none" stroke-width="1" fill="none" fill-rule="evenodd">
        <g id="Group" transform="translate(-260.000000, 0.000000)"></g>
        <path d="M15.7819243,13.3517562 C15.5590706,13.0879415 15.2839043,12.8559624 14.9564391,12.6558191 C14.9655399,12.5830459 14.9723621,12.5148168 14.9769057,12.4511317 C15.0122269,11.4706873 14.7774098,10.4534401 14.451597,9.60597694 C13.8200831,8.03032205 12.8524139,6.76219905 11.4702994,5.90113513 C10.0290119,5.07434544 8.35047178,4.89849032 6.8039206,5.048271 C5.77720401,5.16620232 4.76527384,5.5015062 4,6.13311418 C5.39966941,5.96577541 6.70589117,6.441982 7.7385608,7.21113445 C6.59143663,7.18210432 5.75796543,8.01199707 5.36443825,8.97144602 C5.54183296,8.92495333 5.7274102,8.93056313 5.89656916,8.94415437 C6.10479608,8.96371293 6.30245543,8.98325375 6.49692199,9.02602933 C5.76546711,9.26204208 5.12544461,9.69592613 4.79137418,10.3496745 C4.59541083,10.7639154 4.50694202,11.158378 4.50484215,11.6050905 C4.8475945,11.4246108 5.25986634,11.2487352 5.6373259,11.2639448 C5.06727997,11.7468938 4.61027366,12.36413 4.52530873,13.0720168 C4.47166584,13.6622629 4.61935536,14.2010779 4.83230733,14.702693 C5.68503484,13.7654445 6.64178849,12.9941332 7.74538299,12.5193608 C8.50009335,12.2102706 9.25266973,12.0449841 10.0308171,12.0417569 C9.94099608,12.7368439 10.0108389,13.4090946 10.3378157,13.9794642 C10.7226391,14.5926776 11.284085,14.9484639 11.9137418,15.1257136 C12.8147036,15.3567661 13.6934564,15.0303948 14.2469312,14.4024848 C14.8437966,14.4669641 15.4155603,14.7317832 15.8706127,15.0029012 C15.6772596,14.4173042 15.300751,13.8350532 14.7517734,13.5564436 C15.2744951,13.6532594 15.7732533,13.8080017 16.2390111,14.0067559 C16.1571448,13.8339042 16.004778,13.615571 15.7819243,13.3517562 Z" id="Twitter" fill="#000000" transform="translate(10.119506, 10.100000) scale(1, -1) translate(-10.119506, -10.100000) "></path>
    </g>
</svg>