<?xml version="1.0" encoding="UTF-8"?>
<svg width="20px" height="20px" viewBox="0 0 20 20" version="1.1" xmlns="http://www.w3.org/2000/svg" xmlns:xlink="http://www.w3.org/1999/xlink">
    <!-- Generator: Sketch 47.1 (45422) - http://www.bohemiancoding.com/sketch -->
    <title>vsco</title>
    <desc>Created with Sketch.</desc>
    <defs></defs>
    <g id="Page-1" stroke="none" stroke-width="1" fill="none" fill-rule="evenodd">
        <g id="Group" transform="translate(-540.000000, 0.000000)"></g>
        <path d="M13.4794521,8.37255084 C16.111749,8.37255084 18.0002842,10.2915837 18,12.6622354 L18,12.6855806 C18,15.0576219 16.0878759,17 13.4544421,17 C11.0816234,17 9.31643267,15.4369818 8.99215597,13.3906619 C8.52947195,13.5432396 8.00085261,13.6274492 7.37531973,13.6274492 C4.86466208,13.6274492 3,11.7320395 3,9.33804252 L3,9.31441938 C3,6.94237806 4.82828398,5 7.44722333,5 C9.05695447,5 10.0195532,5.52443374 10.8110612,6.28648849 L9.61768885,7.63411923 C8.95975672,7.04909908 8.28875121,6.69197276 7.43557097,6.69197276 C5.99778321,6.69197276 4.96157563,7.85951179 4.96157563,9.28912872 L4.96157563,9.31441938 C4.96157563,10.7437584 5.97391008,11.9349206 7.43557097,11.9349206 C8.14295458,11.9349206 8.65082703,11.7325953 9.13198431,11.3957571 C9.68476098,9.64959007 11.3456488,8.37255084 13.4794521,8.37255084 Z M16,12.5221286 L16,12.4993375 C16,11.1358457 14.9562383,10 13.4870151,10 C12.0188971,10 11,11.1135846 11,12.4770764 L11,12.4993375 C11,13.8633593 12.0429329,15 13.5113272,15 C14.9797215,15 16,13.8861504 16,12.5221286 Z" id="VSCO" fill="#000000"></path>
    </g>
</svg>