<?xml version="1.0" encoding="UTF-8"?>
<svg width="20px" height="20px" viewBox="0 0 20 20" version="1.1" xmlns="http://www.w3.org/2000/svg" xmlns:xlink="http://www.w3.org/1999/xlink">
    <!-- Generator: Sketch 47.1 (45422) - http://www.bohemiancoding.com/sketch -->
    <title>whatsapp</title>
    <desc>Created with Sketch.</desc>
    <defs></defs>
    <g id="Page-1" stroke="none" stroke-width="1" fill="none" fill-rule="evenodd">
        <g id="Group" transform="translate(-700.000000, 0.000000)"></g>
        <path d="M13.2071625,11.4298779 C13.0329189,11.3428911 12.1768291,10.9214648 12.0171733,10.8631134 C11.8572474,10.8050322 11.7413552,10.7761267 11.6251928,10.9506405 C11.5090304,11.1246139 11.1754012,11.5171347 11.0738266,11.6332971 C10.9722521,11.7497297 10.8704074,11.7640474 10.6964339,11.6770606 C10.5221903,11.5898038 9.96082881,11.405835 9.29573157,10.8125963 C8.77786341,10.3506482 8.42829565,9.78037188 8.3267211,9.60585815 C8.22514654,9.43161456 8.31591529,9.33733392 8.40317216,9.25061734 C8.48151424,9.17254541 8.5771456,9.04692793 8.66440247,8.94535338 C8.75138919,8.84350867 8.78056486,8.77083964 8.83864606,8.65494739 C8.89645711,8.53851485 8.86755159,8.43667015 8.82405823,8.34968343 C8.78056486,8.26242656 8.43207768,7.40525616 8.28700977,7.05649883 C8.14572388,6.71692644 8.00200668,6.76285111 7.89502922,6.75717806 C7.79372481,6.75231545 7.67729227,6.75123487 7.56140003,6.75123487 C7.44523763,6.75123487 7.25640621,6.79472823 7.09675045,6.96897182 C6.93736484,7.14348555 6.4873031,7.56491191 6.4873031,8.42208232 C6.4873031,9.27952287 7.11133829,10.1075176 7.19832501,10.2239501 C7.28558188,10.3401125 8.42667478,12.0995676 10.1737031,12.8538127 C10.5894565,13.0334592 10.9139007,13.1404366 11.1667565,13.2206697 C11.5841307,13.353311 11.9636846,13.334671 12.2638158,13.2898269 C12.5985256,13.23985 13.2941492,12.8684005 13.4394873,12.461562 C13.5845552,12.0547235 13.5845552,11.7059662 13.5410618,11.6332971 C13.4975685,11.5606281 13.3814061,11.5171347 13.2071625,11.4298779 M10.0291755,15.7689485 L10.0270144,15.7689485 C8.98722587,15.7689485 7.96742811,15.4893483 7.07811044,14.9614848 L6.86631668,14.8358673 L4.6735489,15.4110062 L5.25895333,13.2730779 L5.12117933,13.0539902 C4.5411778,12.1317148 4.23483326,11.065182 4.23537355,9.97082418 C4.23645413,6.77608822 6.83579028,4.17729235 10.0316068,4.17729235 C11.578998,4.17783264 13.0337293,4.78133679 14.1275468,5.87650503 C15.2216345,6.97167327 15.8235178,8.42721507 15.8229775,9.97541664 C15.8216268,13.1698825 13.2225608,15.7689485 10.0291755,15.7689485 M14.960134,5.04418798 C13.6439871,3.72669032 11.8939871,3.00081044 10.0291755,3 C6.18690175,3 3.05997221,6.12692954 3.05835134,9.97028389 C3.0580812,11.1989038 3.37901358,12.3980779 3.98873107,13.4551557 L3,17.0672658 L6.69531483,16.0977151 C7.71349172,16.6531334 8.85971738,16.9459707 10.0264741,16.9462408 L10.0291755,16.9462408 C10.0294457,16.9462408 10.0289054,16.9462408 10.0291755,16.9462408 C13.870909,16.9462408 16.9983788,13.8193113 16.9999997,9.97568679 C17.00054,8.11330647 16.276281,6.36195578 14.960134,5.04418798" id="Whatsapp" fill="#000000"></path>
    </g>
</svg>