<?xml version="1.0" encoding="UTF-8"?>
<svg width="20px" height="20px" viewBox="0 0 20 20" version="1.1" xmlns="http://www.w3.org/2000/svg" xmlns:xlink="http://www.w3.org/1999/xlink">
    <!-- Generator: Sketch 47.1 (45422) - http://www.bohemiancoding.com/sketch -->
    <title>youtube</title>
    <desc>Created with Sketch.</desc>
    <defs></defs>
    <g id="Page-1" stroke="none" stroke-width="1" fill="none" fill-rule="evenodd">
        <g id="Group" transform="translate(-340.000000, 0.000000)"></g>
        <path d="M8.56410256,12.0909091 L8.56410256,7.90909091 L12.1538462,10.0000799 L8.56410256,12.0909091 Z M16.7074318,6.56153226 C16.5464318,5.94685484 16.0720227,5.46282258 15.4697045,5.29854839 C14.3779432,5 10,5 10,5 C10,5 5.62205682,5 4.53029545,5.29854839 C3.92797727,5.46282258 3.45356818,5.94685484 3.29256818,6.56153226 C3,7.67556452 3,10 3,10 C3,10 3,12.3243548 3.29256818,13.4384677 C3.45356818,14.0531452 3.92797727,14.5371774 4.53029545,14.7015323 C5.62205682,15 10,15 10,15 C10,15 14.3779432,15 15.4697045,14.7015323 C16.0720227,14.5371774 16.5464318,14.0531452 16.7074318,13.4384677 C17,12.3243548 17,10 17,10 C17,10 17,7.67556452 16.7074318,6.56153226 L16.7074318,6.56153226 Z" id="Youtube" fill="#000000"></path>
    </g>
</svg>